<?xml version="1.0" standalone="yes"?>
<svg xmlns="http://www.w3.org/2000/svg" width="500" height="500">
<path style="fill:#0d161c; stroke:none;" d="M0 0L0 500L500 500L500 0L0 0z"/>
<path style="fill:#e69f2a; stroke:none;" d="M94 37.5178C52.1664 46.4429 66.3232 110.158 108 100.985C148.264 92.1225 134.029 28.9777 94 37.5178z"/>
<path style="fill:#bc6123; stroke:none;" d="M320 38.4645C278.339 45.9731 289.873 108.938 331 101.535C371.755 94.2005 360.349 31.1924 320 38.4645z"/>
<path style="fill:#e69f2a; stroke:none;" d="M406 38.4391C364.859 44.915 374.036 108.996 415 102.561C456.735 96.0049 447.684 31.8777 406 38.4391z"/>
<path style="fill:#eedbce; stroke:none;" d="M87 57L102 50C96.127 48.7437 88.8955 50.8551 87 57z"/>
<path style="fill:#0d161c; stroke:none;" d="M102 50L102 51C113.344 55.638 110.231 58.1487 110 69L103 69L103 65L102 65L102 69L99 69L97 55L96 55L98 68L91 69L87 56L86 56C74.3676 71.5671 87.6784 96.4053 108 87.6327C127.206 79.3416 121.256 52.8864 102 50M317 57L318 57C322.761 51.4481 327.239 51.448 332 57C333.329 47.36 319.878 51.0126 317 57z"/>
<path style="fill:#e69f2a; stroke:none;" d="M88 56L91 69L98 68L96 55L97 55L99 69L102 69L102 65L103 65L103 69L110 69C110.322 61.6163 114.687 55.4596 106 52L104 65L103 65L105 52C99.0732 50.5065 93.0668 52.8794 88 56z"/>
<path style="fill:#bc6123; stroke:none;" d="M110 52L111 53L110 52z"/>
<path style="fill:#eedbce; stroke:none;" d="M105 53L103 65L104 65L105 53z"/>
<path style="fill:#e69f2a; stroke:none;" d="M86 57L82 69L90 69L86 57M113 58L111 69L119 69L115 58L113 58M314.109 59.0278C308.476 62.1987 308.088 76.2203 312.434 80.5663C316.324 84.4565 331.256 84.5383 335.941 81.9722C341.531 78.9108 341.983 64.6183 337.682 60.3179C333.891 56.5268 318.668 56.4616 314.109 59.0278z"/>
<path style="fill:#bc6123; stroke:none;" d="M111 59L112 60L111 59z"/>
<path style="fill:#0d161c; stroke:none;" d="M425 60C415.567 68.6884 409.756 78.4584 398 69L397 69L395 73C398.218 75.3851 403.62 81.5382 408 80.5463C413.716 79.2518 429.899 65.3384 425 60z"/>
<path style="fill:#bc6123; stroke:none;" d="M98 62L98 65L99 65L98 62z"/>
<path style="fill:#0d161c; stroke:none;" d="M324 75L326 75C326.765 62.9527 323.246 63.0109 324 75z"/>
<path style="fill:#e69f2a; stroke:none;" d="M82 70L87 81L90 70L82 70M91 70C90.4191 77.1023 86.249 82.8319 94 87L98 71L91 70M99 70L96 87L105 87L102 70L99 70M103 70L106 86C114.989 84.1592 110.143 76.7077 110 70L103 70M111 70L113 81C117.167 78.629 118.314 74.5771 119 70L111 70z"/>
<path style="fill:#bc6123; stroke:none;" d="M89.3333 72.6667L89.6667 73.3333L89.3333 72.6667z"/>
<path style="fill:#eedbce; stroke:none;" d="M263 83C264.19 89.8463 261.456 94.5333 254 93C258.395 116.671 245.711 145.787 218 137C216.808 143.577 210.184 150.728 204.603 142.891C202.262 139.604 203 134.814 203 131C190.734 131.561 180.514 135.069 168 132.551C147.922 128.511 128.109 116.665 107 120.465C90.7969 123.381 82.9841 136.91 69 142.948C59.9176 146.868 50.9805 139.027 42.0941 147.214C35.2435 153.525 33.9239 164.233 39.2492 171.96C41.4298 175.124 46.1243 177.359 47.2268 181.093C48.6311 185.849 46.3047 194.065 45.7145 199C44.5309 208.897 45.9763 219.229 43.7014 229C42.785 232.936 39.8524 235.938 39.2137 240C38.3709 245.361 40.4203 250.729 39.4707 256C36.5833 272.026 28.4853 286.157 30.1705 303C31.5487 316.774 41.2652 327.01 44.8418 340C46.5212 346.099 47.326 351.769 45.9853 358C45.1665 361.806 42.0583 367.768 43.6427 371.61C45.4082 375.89 55.9534 379.996 60 382C59.998 363.539 46.8315 348.361 49 330L50 330C53.5192 349.73 77.4906 354.968 85 373C89.8504 371.655 92.5898 370.28 93 365L188 365C199.746 365 216.054 364.279 214.88 348C213.774 332.658 197.131 334 186 334L93 334L93 328L120 328L120 327C89.2984 322.398 87.7568 283.814 112 270L112 269L98 268L98 267C101.614 265.767 106.202 264.393 108.292 260.895C110.205 257.695 107.959 253.49 108.059 250C108.335 240.287 114.253 233.939 101 230L101 229C112.081 229.875 124.761 230.343 133.957 237.558C145.101 246.301 140.718 261.936 128 266L128 267C138.07 269.859 146.973 274.173 152.004 284C160.896 301.371 149.285 324.109 130 327L130 328L178 328L178 327C163.463 318.597 158.044 301.993 158 286L154 286C154 277.937 156.577 264.643 153.397 257.209C151.154 251.967 145.766 250.324 144.465 244C140.203 223.291 145.002 201.689 146.925 181C147.718 172.474 148.013 159.016 153.43 152.04C159.016 144.846 169.702 141.807 178 139C182.229 157.279 196.346 183.767 214 192C213.19 181.737 216.493 162.051 208 155L208 154L219 153C215.252 162.961 224.76 177.423 228 187L229 187C232.953 174.853 243.869 155.638 242 143C245.076 143.879 252.322 145.465 253.006 149.225C254.196 155.764 243.785 166.358 240.971 172C235.71 182.548 236.837 192.844 239 204L257 205L256 214C257.419 219.711 255.574 232.609 247 230L240 232C239.677 247.663 229.925 276.308 240.652 289.867C244.158 294.299 251.099 295.798 256 298.248C265.448 302.973 274.117 309.163 278.676 319C285.479 333.681 273.735 347.837 276.465 363C277.895 370.949 281.308 378.228 287.04 383.96C289.992 386.912 295.721 389.317 297.397 393.21C299.049 397.048 297.552 402.051 297.17 406C296.201 416.008 295.261 426.021 294 436L285 436L285 439L307 445L307 435L302 435L302 394C339.843 398.887 377.671 404.905 414 390L405 402C416.007 398.086 427.045 397.167 436 389C433.361 397.89 426.02 402.296 420.329 409.015C417.699 412.119 415.981 416.825 411.957 418.397C405.672 420.851 395.697 419 389 419C379.367 419 357.985 415.568 353.133 427.04C348.738 437.431 363.028 448.572 364 458L256 457L256 436L251 436L250 413L230 413L230 414C249.369 425.203 243.283 452.432 221 454.826C202.586 456.805 183.395 454.465 165 454.015C130.379 453.167 95.6322 454 61 454L61 449L154 449C165.595 449 181.774 449.943 182.529 434C183.266 418.424 167.539 417 156 417L61 417C61 424.914 63.7071 439.078 59.142 445.891C55.369 451.522 49.3037 448.706 44.0008 450.742C35.7341 453.917 32.8428 464.817 37.7276 471.956C43.6044 480.545 57.0564 478 66 478L143 478L381 478L447 478C455.36 478 468.355 480.427 475.999 476.682C484.901 472.321 486.959 459.077 478.812 452.854C474.275 449.389 468.368 450 463 450C471.07 438.147 467.237 424.822 454 419C468.223 392.292 470.66 351.605 466.421 322C465.131 312.995 464.074 299.597 458.006 292.318C454.975 288.681 449.143 290.332 445 289.815C438.602 289.016 432.876 285.216 429.224 279.985C427.074 276.907 423.198 270.655 423.043 266.83C422.879 262.771 426.172 259.285 425.316 255C423.909 247.959 409.322 233.107 403 230L402 260L402 320L404 319L402 350L400.972 362.57L390 367L389 355C384.785 359.181 383.195 366.273 377.935 369.165C371.297 372.814 367.361 381.419 360.004 383.828C353.742 385.878 348.164 373.562 346.548 369C340.052 350.665 355.72 333.461 346.095 316C337.18 299.827 307.681 298.665 306 280C312.112 281.13 319.582 280.596 318.528 272.17C318.242 269.89 316.113 268.092 316.475 265.731C317.25 260.668 319.954 255.232 321 250C326.352 223.238 335.091 196.104 338.276 169.015C338.968 163.134 331.904 160.294 333.449 154.004C336.275 142.496 347.248 147.833 352 154C356.336 153.103 365.185 152.103 367.968 148.298C371.877 142.955 363.038 129.253 361 124C365.717 128.674 371.595 134.665 378.961 132.343C386.812 129.869 399.466 112.01 394.258 104.043C384.96 89.823 345.106 88.25 354 112C349.391 108.475 345.974 102.178 340 100.743C330.852 98.5452 322.899 103.977 313 99.9059C303.115 95.841 300.857 84.7214 292.787 80.1937C286.192 76.4937 269.83 80.8348 263 83z"/>
<path style="fill:#e69f2a; stroke:none;" d="M294.333 79.6667L294.667 80.3333L294.333 79.6667z"/>
<path style="fill:#bc6123; stroke:none;" d="M85 82L86 83L85 82M262.333 82.6667L262.667 83.3333L262.333 82.6667z"/>
<path style="fill:#e69f2a; stroke:none;" d="M264 82L265 83L264 82M295 82L296 83L295 82z"/>
<path style="fill:#bc6123; stroke:none;" d="M86 83L87 84L86 83M220 83L218 86L220 83M87 84L88 85L87 84z"/>
<path style="fill:#e69f2a; stroke:none;" d="M204 94L205 109C197.603 104.937 189.898 108.849 194.458 117.999C196.478 122.053 201.92 124.027 203.307 128.129C204.998 133.129 200.93 139.016 204.603 143.772C210.515 151.426 217.328 143.51 218 137C237.012 145.035 250.557 131.288 254.192 113C255.268 107.586 256.952 97.1531 252.566 92.9005C245.577 86.1225 239.199 90.4039 231 88.2361C227.762 87.38 223.484 84.0326 220.09 85.2515C213.547 87.6007 212.052 93.6258 204 94z"/>
<path style="fill:#bc6123; stroke:none;" d="M222 84L223 85L222 84z"/>
<path style="fill:#e69f2a; stroke:none;" d="M296 84L297 85L296 84z"/>
<path style="fill:#bc6123; stroke:none;" d="M224 85L225 86L224 85z"/>
<path style="fill:#e69f2a; stroke:none;" d="M263 85L264 86L263 85z"/>
<path style="fill:#bc6123; stroke:none;" d="M225.667 86.3333L226.333 86.6667L225.667 86.3333M263 86L263 90L264 90L263 86z"/>
<path style="fill:#e69f2a; stroke:none;" d="M297 86L298 87L297 86z"/>
<path style="fill:#bc6123; stroke:none;" d="M228.667 87.3333L229.333 87.6667L228.667 87.3333M243 87L244 88L243 87M216 88L217 89L216 88M231 88L231 89L242 89L231 88z"/>
<path style="fill:#e69f2a; stroke:none;" d="M298 88L299 89L298 88z"/>
<path style="fill:#bc6123; stroke:none;" d="M215 89L216 90L215 89M247 89L248 90L247 89z"/>
<path style="fill:#e69f2a; stroke:none;" d="M299 89L300 90L299 89z"/>
<path style="fill:#bc6123; stroke:none;" d="M214 90L215 91L214 90z"/>
<path style="fill:#e69f2a; stroke:none;" d="M263 90L264 91L263 90M300 90L301 91L300 90z"/>
<path style="fill:#bc6123; stroke:none;" d="M213 91L214 92L213 91M250 91L251 92L250 91M262 91L263 92L262 91M212 92L213 93L212 92M252.667 92.3333L253.333 92.6667L252.667 92.3333M261 92L262 93L261 92M203 96L204 96L210 94C207.12 92.3409 203.772 92.3984 203 96M221 93L221 94L228 94L221 93M243 93L243 94L248 94L243 93z"/>
<path style="fill:#e69f2a; stroke:none;" d="M255 93L256 94L255 93z"/>
<path style="fill:#bc6123; stroke:none;" d="M256 93L256 94L260 94L256 93z"/>
<path style="fill:#e69f2a; stroke:none;" d="M260 93L261 94L260 93z"/>
<path style="fill:#bc6123; stroke:none;" d="M219 94L220 95L219 94z"/>
<path style="fill:#0d161c; stroke:none;" d="M218 95L218 98C222.579 98.7157 226.552 98.2048 229 94L218 95M242 94C243.482 98.2582 246.864 98.6214 251 98C248.888 94.17 246.161 94.0492 242 94z"/>
<path style="fill:#bc6123; stroke:none;" d="M249 94L250 95L249 94M229 95L230 96L229 95M241 95L242 96L241 95M250 95L251 96L250 95z"/>
<path style="fill:#e69f2a; stroke:none;" d="M305 95L306 96L305 95z"/>
<path style="fill:#bc6123; stroke:none;" d="M217.333 96.6667L217.667 97.3333L217.333 96.6667M228 96L229 97L228 96z"/>
<path style="fill:#e69f2a; stroke:none;" d="M306 96L307 97L306 96z"/>
<path style="fill:#bc6123; stroke:none;" d="M226 97L227 98L226 97M243 97L244 98L243 97z"/>
<path style="fill:#e69f2a; stroke:none;" d="M308 97L309 98L308 97z"/>
<path style="fill:#bc6123; stroke:none;" d="M204.333 98.6667L204.667 99.3333L204.333 98.6667M218.667 98.3333L219.333 98.6667L218.667 98.3333M222 98L222 99L225 99L222 98M245.667 98.3333L246.333 98.6667L245.667 98.3333M249 98L250 99L249 98z"/>
<path style="fill:#e69f2a; stroke:none;" d="M309 98L310 99L309 98M311 99L312 100L311 99M338.667 99.3333L339.333 99.6667L338.667 99.3333M314 100L315 101L314 100M335.667 100.333L336.333 100.667L335.667 100.333M340 100L341 101L340 100M317.667 101.333L318.333 101.667L317.667 101.333M331.667 101.333L332.333 101.667L331.667 101.333M322 102L322 103L328 103L322 102z"/>
<path style="fill:#bc6123; stroke:none;" d="M226 105L229 104L226 105M244 105L247 104L244 105z"/>
<path style="fill:#0d161c; stroke:none;" d="M229 110L230 104C226.202 105.253 225.737 107.624 229 110M247 110L248 104C244.187 105.28 244.333 107.312 247 110z"/>
<path style="fill:#bc6123; stroke:none;" d="M197 105L197 106L200 106L197 105M248 105L248 108L249 108L248 105M195 106L196 107L195 106M201 106L202 107L201 106M230 106L231 107L230 106M194 107L195 108L194 107M202 107L203 108L202 107M204 107L203 109L205 109L204 107M244 108L245 109L244 108M193.333 109.667L193.667 110.333L193.333 109.667M227 109L228 110L227 109M245 109L246 110L245 109M247 109L248 110L247 109M196 114L197 114L200 111L199 114L200 114L202 114C202.115 109.459 197.215 110.378 196 114M240 111L243 117L240 118L240 119C244.059 116.675 242.907 114.032 240 111M199 115L202 119L199 115M193 116L194 117L193 116M194 118L195 119L194 118M238 119L239 120L238 119M195 120L196 121L195 120z"/>
<path style="fill:#eedbce; stroke:none;" d="M225 120C227.027 128.355 234.739 130.308 239 122L225 120z"/>
<path style="fill:#bc6123; stroke:none;" d="M196 121L197 122L196 121M197 122L198 123L197 122M198 123L199 124L198 123M199 124L200 125L199 124M201.667 125.333L202.333 125.667L201.667 125.333M203 126L203 132L204 132L203 126M198 129L198 131L200 129L198 129z"/>
<path style="fill:#e69f2a; stroke:none;" d="M199.667 130.333L200.333 130.667L199.667 130.333z"/>
<path style="fill:#bc6123; stroke:none;" d="M201 130L202 131L201 130z"/>
<path style="fill:#e69f2a; stroke:none;" d="M195 131L195 132L198 132L195 131M192 132L192 133L195 133L192 132M392.005 132.743C380.699 137.084 387.785 154.724 398.957 150.257C410.069 145.814 403.417 128.361 392.005 132.743z"/>
<path style="fill:#bc6123; stroke:none;" d="M395.029 136.917C388.608 137.496 389.359 147.798 395.996 146.623C402.196 145.527 401.445 136.337 395.029 136.917z"/>
<path style="fill:#6090af; stroke:none;" d="M154 286L155 286L155 256C173.062 261.076 193.556 258.556 211 251.934C217.131 249.607 225.837 246.181 228.972 239.996C232.969 232.111 227.054 221.467 229 213L182 218L183 196C196.992 205.129 209.822 200.539 225 204C227.988 198.849 231.173 196.271 237 195C237 184.303 238.724 176.224 244.424 167C247.039 162.77 254.502 154.47 253.184 149.133C252.174 145.046 245.487 143.62 242 143C242.123 161.225 229.642 183.691 224 201C203.351 183.017 186.637 165.545 178 139C169.779 140.948 157.675 144.717 152.728 152.04C147.758 159.396 147.755 172.403 146.834 181C144.597 201.882 140.162 224.097 144.465 245C145.783 251.407 152.183 253.396 153.682 259.043C155.808 267.054 154 277.715 154 286z"/>
<path style="fill:#bc6123; stroke:none;" d="M385 140L386 141L385 140M405 140L406 141L405 140z"/>
<path style="fill:#6090af; stroke:none;" d="M238 141L238 142L242 143L242 142L238 141M370 146L369 146C364.406 153.946 353.786 149.951 351 160L389 160L390 272L390 336L395 331L396 331L398 333L399 331L399 330L397 330L397 329L401 328L400 325L402 326L401 323C403.396 323.575 403.487 323.475 404 321L403 321L403 323L402 323C402 291.785 403.532 260.152 402.406 229C401.804 212.332 401.801 195.645 402.625 179C402.882 173.807 400.95 168.292 402.303 163.123C403.885 157.085 424.72 159.819 430 160.039C433.017 160.165 438.704 161.794 438.704 156.999C438.704 152.906 433.952 152.839 431 152.101C421.754 149.79 413.713 144.628 405 141C402.528 153.244 388.475 153.266 386 141L370 146z"/>
<path style="fill:#0d161c; stroke:none;" d="M384 142L385 143L384 142z"/>
<path style="fill:#bc6123; stroke:none;" d="M386 144L387 145L386 144M404 144L405 145L404 144z"/>
<path style="fill:#e69f2a; stroke:none;" d="M341.001 146.627C328.885 148.525 331.741 167.434 343.996 165.198C355.719 163.058 352.67 144.8 341.001 146.627z"/>
<path style="fill:#bc6123; stroke:none;" d="M403 146L404 147L403 146z"/>
<path style="fill:#e69f2a; stroke:none;" d="M445.015 146.746C433.26 151.233 440.806 169.753 452.981 164.333C463.596 159.607 455.875 142.602 445.015 146.746M253 147L254 148L253 147z"/>
<path style="fill:#bc6123; stroke:none;" d="M391 150L392 151L391 150z"/>
<path style="fill:#e69f2a; stroke:none;" d="M212 151L213 152L212 151z"/>
<path style="fill:#bc6123; stroke:none;" d="M208 154C218.341 169.389 206.387 189.993 224 201L228.093 189L218.826 162L216.361 152.785L208 154M341.143 151.89C335.991 153.304 338.51 161.935 343.776 160.149C348.684 158.485 346.061 150.541 341.143 151.89M439 151L440 152L439 151M447.133 151.851C442.007 153.555 444.541 161.892 449.857 160.149C454.923 158.488 452.301 150.133 447.133 151.851z"/>
<path style="fill:#e69f2a; stroke:none;" d="M210 152L211 153L210 152M218 153L219 154L218 153z"/>
<path style="fill:#bc6123; stroke:none;" d="M438 153L439 154L438 153z"/>
<path style="fill:#0d161c; stroke:none;" d="M437 154L438 155L437 154z"/>
<path style="fill:#e69f2a; stroke:none;" d="M217 156L218 157L217 156M217 158L218 159L217 158z"/>
<path style="fill:#bc6123; stroke:none;" d="M351 158L352 159L351 158M439 158L439 161L440 161L439 158z"/>
<path style="fill:#e69f2a; stroke:none;" d="M212 159L212 163L213 163L212 159M101 160L108 173C113.933 170.231 117.778 170.028 124 172C118.916 165.433 108.934 161.884 101 160z"/>
<path style="fill:#eedbce; stroke:none;" d="M327 286C324.557 295.207 342.056 304.097 346.651 312C354.026 324.683 353.111 342.927 352 357C358.658 352.448 364.416 347.549 372 344.452C377.661 342.14 386.697 340.283 389.258 333.957C393.595 323.24 390 304.542 390 293L390 217C390 206.893 392.557 192.831 389.682 183.148C388.476 179.087 383.435 180.709 381.086 177.682C377.689 173.306 378.234 166.658 374.911 162.318C371.69 158.111 358.819 159.426 354.039 160.144C340.231 162.22 349.739 185.54 351.65 194C355.631 211.617 359.341 229.314 363.003 247C364.237 252.959 367.984 260.926 367.907 266.83C367.872 269.477 365.461 272.659 364.335 275.004C356.305 291.723 342.035 291.378 327 286z"/>
<path style="fill:#0d161c; stroke:none;" d="M375 160C376.382 169.396 378.248 179.962 389 180L389 160L375 160z"/>
<path style="fill:#e69f2a; stroke:none;" d="M218 161L219 162L218 161z"/>
<path style="fill:#eedbce; stroke:none;" d="M425 164L425 165L435 165L425 164z"/>
<path style="fill:#bc6123; stroke:none;" d="M453 164L454 165L453 164z"/>
<path style="fill:#6090af; stroke:none;" d="M339 165L340 166L339 165z"/>
<path style="fill:#bc6123; stroke:none;" d="M340 165L341 166L340 165M343.667 165.333L344.333 165.667L343.667 165.333z"/>
<path style="fill:#6090af; stroke:none;" d="M345 165L345 168L346 168L345 165z"/>
<path style="fill:#bc6123; stroke:none;" d="M444 165L445 166L444 165z"/>
<path style="fill:#6090af; stroke:none;" d="M445 165L446 166L445 165z"/>
<path style="fill:#bc6123; stroke:none;" d="M446 165L446 166L451 166L451 165L446 165z"/>
<path style="fill:#6090af; stroke:none;" d="M451 165L452 166L451 165z"/>
<path style="fill:#bc6123; stroke:none;" d="M452 165L453 166L452 165z"/>
<path style="fill:#e69f2a; stroke:none;" d="M220 166L221 167L220 166z"/>
<path style="fill:#0d161c; stroke:none;" d="M339 166L319 264L320 264L341 166L339 166z"/>
<path style="fill:#eedbce; stroke:none;" d="M341 166L321 265L364 265C362.015 240.7 353.586 215.925 348.8 192C347.426 185.13 346.947 170.149 341 166z"/>
<path style="fill:#6090af; stroke:none;" d="M343 166L344 167L343 166z"/>
<path style="fill:#0d161c; stroke:none;" d="M344 166L354.576 217L365 264L366 264L351.424 195L344 166z"/>
<path style="fill:#6090af; stroke:none;" d="M449 166L450 167L449 166z"/>
<path style="fill:#e69f2a; stroke:none;" d="M343 167L344 168L343 167z"/>
<path style="fill:#6090af; stroke:none;" d="M338 168L338 171L339 171L338 168M340 168L340 171L341 171L340 168z"/>
<path style="fill:#e69f2a; stroke:none;" d="M221 169L222 170L221 169M346 169L347 170L346 169z"/>
<path style="fill:#6090af; stroke:none;" d="M450.333 169.667L450.667 170.333L450.333 169.667z"/>
<path style="fill:#bc6123; stroke:none;" d="M113 170.559C92.3008 175.888 99.7115 207.633 121 202.467C141.257 197.551 132.569 165.52 113 170.559z"/>
<path style="fill:#6090af; stroke:none;" d="M344.333 170.667L344.667 171.333L344.333 170.667M346.333 170.667L346.667 171.333L346.333 170.667z"/>
<path style="fill:#e69f2a; stroke:none;" d="M337 172L338 173L337 172M126 173L127 174L126 173z"/>
<path style="fill:#6090af; stroke:none;" d="M337.333 173.667L337.667 174.333L337.333 173.667M339.333 173.667L339.667 174.333L339.333 173.667z"/>
<path style="fill:#e69f2a; stroke:none;" d="M127 174L128 175L127 174M223 174L224 175L223 174z"/>
<path style="fill:#6090af; stroke:none;" d="M345 174L345 177L346 177L345 174M347 174L347 177L348 177L347 174M445 177L452 177L452 174L445 177z"/>
<path style="fill:#e69f2a; stroke:none;" d="M128 175L129 176L128 175M339 175L340 176L339 175z"/>
<path style="fill:#eedbce; stroke:none;" d="M427 265L441 263C437.196 252.356 450.286 235.435 454.641 226C460.334 213.667 459.188 190.124 451.686 178.244C445.94 169.145 442.482 188.887 442.171 192C439.743 216.275 428.07 240.135 427 265z"/>
<path style="fill:#e69f2a; stroke:none;" d="M129 176L130 177L129 176M224 177L225 178L224 177z"/>
<path style="fill:#6090af; stroke:none;" d="M336 177L336 180L337 180L336 177M338 177L338 180L339 180L338 177z"/>
<path style="fill:#e69f2a; stroke:none;" d="M102 178L103 179L102 178M114.04 178.657C103.695 181.921 108.553 197.987 118.985 195.156C129.799 192.221 124.96 175.211 114.04 178.657z"/>
<path style="fill:#6090af; stroke:none;" d="M444.333 178.667L444.667 179.333L444.333 178.667M452.333 178.667L452.667 179.333L452.333 178.667z"/>
<path style="fill:#e69f2a; stroke:none;" d="M131 179L132 180L131 179z"/>
<path style="fill:#6090af; stroke:none;" d="M346.333 179.667L346.667 180.333L346.333 179.667M348 179L348 182L349 182L348 179z"/>
<path style="fill:#e69f2a; stroke:none;" d="M101 180L102 181L101 180M213 181L213 188L214 188L213 181M346 181L347 182L346 181M132 182L133 183L132 182M226 182L227 183L226 182z"/>
<path style="fill:#6090af; stroke:none;" d="M335 182L335 185L336 185L335 182M337 182L337 185L338 185L337 182z"/>
<path style="fill:#e69f2a; stroke:none;" d="M100.333 183.667L100.667 184.333L100.333 183.667M349 183L350 184L349 183z"/>
<path style="fill:#6090af; stroke:none;" d="M443.333 183.667L443.667 184.333L443.333 183.667M453.333 183.667L453.667 184.333L453.333 183.667M347.333 184.667L347.667 185.333L347.333 184.667M349.333 184.667L349.667 185.333L349.333 184.667z"/>
<path style="fill:#e69f2a; stroke:none;" d="M227 185L228 186L227 185M334 186L335 187L334 186M228 187L229 188L228 187z"/>
<path style="fill:#6090af; stroke:none;" d="M334.333 187.667L334.667 188.333L334.333 187.667M336.333 187.667L336.667 188.333L336.333 187.667M442 187L442 190L443 190L442 187M454 187L454 190L455 190L454 187M348 188L348 191L349 191L348 188M350 188L350 191L351 191L350 188M403 188L403 200L404 200L403 188z"/>
<path style="fill:#e69f2a; stroke:none;" d="M100 189C97.2899 193.763 92.1929 194.762 87 195L87 196L112 203L112 202C105.295 199.719 103.025 194.875 100 189M336 189L337 190L336 189M132 191L133 192L132 191z"/>
<path style="fill:#6090af; stroke:none;" d="M333 191L333 194L334 194L333 191M335 191L335 194L336 194L335 191z"/>
<path style="fill:#e69f2a; stroke:none;" d="M213 192L214 193L213 192z"/>
<path style="fill:#6090af; stroke:none;" d="M441 192L438 209L439 209C441.635 203.758 443.377 197.665 441 192M455.333 192.667L455.667 193.333L455.333 192.667M349.333 193.667L349.667 194.333L349.333 193.667M351 193L351 196L352 196L351 193z"/>
<path style="fill:#0d161c; stroke:none;" d="M225 204L199 202.823L183 196L182 218L214 213.95L227 214L228 214C235.815 208.046 238.282 204.572 237 195C230.908 195.842 227.272 198.157 225 204z"/>
<path style="fill:#e69f2a; stroke:none;" d="M349 195L350 196L349 195z"/>
<path style="fill:#6090af; stroke:none;" d="M237 196L237 199L238 199L237 196M332 196L332 199L333 199L332 196M334 196L334 199L335 199L334 196z"/>
<path style="fill:#e69f2a; stroke:none;" d="M352 197L353 198L352 197z"/>
<path style="fill:#6090af; stroke:none;" d="M456.333 197.667L456.667 198.333L456.333 197.667z"/>
<path style="fill:#e69f2a; stroke:none;" d="M128 198L129 199L128 198z"/>
<path style="fill:#6090af; stroke:none;" d="M350.333 198.667L350.667 199.333L350.333 198.667M352.333 198.667L352.667 199.333L352.333 198.667z"/>
<path style="fill:#e69f2a; stroke:none;" d="M331 200L332 201L331 200M350 200L351 201L350 200M124 201L125 202L124 201z"/>
<path style="fill:#6090af; stroke:none;" d="M238.333 201.667L238.667 202.333L238.333 201.667M331.333 201.667L331.667 202.333L331.333 201.667M333.333 201.667L333.667 202.333L333.333 201.667M457 201L457 204L458 204L457 201z"/>
<path style="fill:#e69f2a; stroke:none;" d="M121 202L122 203L121 202z"/>
<path style="fill:#6090af; stroke:none;" d="M351 202L351 205L352 205L351 202M353 202L353 205L354 205L353 202z"/>
<path style="fill:#e69f2a; stroke:none;" d="M333 203L334 204L333 203z"/>
<path style="fill:#bc6123; stroke:none;" d="M238 204L239 205L238 204z"/>
<path style="fill:#e69f2a; stroke:none;" d="M230 234L247 230C253.978 236.36 257.824 218.621 256 214L257 205C246.852 203.116 231.299 202.885 228.333 216C227.098 221.458 229.563 228.459 230 234z"/>
<path style="fill:#6090af; stroke:none;" d="M330 205L330 208L331 208L330 205M332 205L332 208L333 208L332 205M458.333 206.667L458.667 207.333L458.333 206.667M352 207L352 210L353 210L352 207M354 207L354 210L355 210L354 207M329 210L329 213L330 213L329 210M331 210L331 213L332 213L331 210z"/>
<path style="fill:#e69f2a; stroke:none;" d="M355 211L356 212L355 211z"/>
<path style="fill:#6090af; stroke:none;" d="M437.333 211.667L437.667 212.333L437.333 211.667M459 211L458 217L459 217L459 211M353.333 212.667L353.667 213.333L353.333 212.667M355.333 212.667L355.667 213.333L355.333 212.667z"/>
<path style="fill:#e69f2a; stroke:none;" d="M328 214L329 215L328 214M353 214L354 215L353 214z"/>
<path style="fill:#6090af; stroke:none;" d="M328.333 215.667L328.667 216.333L328.333 215.667M330.333 215.667L330.667 216.333L330.333 215.667M436 215L436 218L437 218L436 215M354 216L354 219L355 219L354 216M356 216L356 219L357 219L356 216M460 216L460 219L461 219L460 216z"/>
<path style="fill:#e69f2a; stroke:none;" d="M330 217L331 218L330 217z"/>
<path style="fill:#6090af; stroke:none;" d="M327 219L327 222L328 222L327 219M329 219L329 222L330 222L329 219M435.333 220.667L435.667 221.333L435.333 220.667M355 221L355 224L356 224L355 221M357 221L357 224L358 224L357 221M461.333 222.667L461.667 223.333L461.333 222.667M326 224L326 227L327 227L326 224M328 224L328 227L329 227L328 224z"/>
<path style="fill:#e69f2a; stroke:none;" d="M358 225L359 226L358 225z"/>
<path style="fill:#6090af; stroke:none;" d="M434.333 225.667L434.667 226.333L434.333 225.667M356.333 226.667L356.667 227.333L356.333 226.667M358.333 226.667L358.667 227.333L358.333 226.667M462 226L463 227L462 226z"/>
<path style="fill:#e69f2a; stroke:none;" d="M325 228L326 229L325 228M356 228L357 229L356 228M101 229L101 230L112 239L113 239L126 234C119.624 228.905 108.864 229.338 101 229z"/>
<path style="fill:#6090af; stroke:none;" d="M325.333 229.667L325.667 230.333L325.333 229.667M327.333 229.667L327.667 230.333L327.333 229.667M433 229L433 232L434 232L433 229M357 230L357 233L358 233L357 230M359 230L359 233L360 233L359 230z"/>
<path style="fill:#e69f2a; stroke:none;" d="M327 231L328 232L327 231z"/>
<path style="fill:#bc6123; stroke:none;" d="M236 233L237 234L236 233z"/>
<path style="fill:#6090af; stroke:none;" d="M237 233L238 234L237 233z"/>
<path style="fill:#0d161c; stroke:none;" d="M238 233L230 235C228.684 243.525 220.166 247.461 213 250.688C194.72 258.922 174.288 259.979 155 256L155 286L159 286C159 297.844 160.464 309.512 168.329 318.999C184.703 338.751 226.901 338.499 250 333L251 436L294 436C294.104 423.472 301.04 405.19 297.227 393.209C295.982 389.298 289.89 386.728 287.093 383.91C282.061 378.839 278.044 372.013 276.517 365C273.557 351.411 282.184 340.074 280.826 327C278.637 305.939 258.791 302.093 244.043 292.775C240.465 290.515 239.373 285.27 235.725 283.603C230.501 281.217 222.538 283.973 217 283.999C198.656 284.088 180.369 286 162 286L162 285C178.567 278.031 192.227 267.622 210 262.424C216.416 260.548 231.695 260.149 236.258 255.4C239.979 251.528 239.955 237.66 238 233z"/>
<path style="fill:#6090af; stroke:none;" d="M239 233L239 239L240 239L239 233M324 233L324 236L325 236L324 233M326 233L326 236L327 236L326 233z"/>
<path style="fill:#bc6123; stroke:none;" d="M119 234.653C99.8645 240.647 108.377 271.851 128 266.211C148.772 260.24 139.734 228.158 119 234.653z"/>
<path style="fill:#e69f2a; stroke:none;" d="M128 234L129 235L128 234z"/>
<path style="fill:#bc6123; stroke:none;" d="M230 234L231 235L230 234z"/>
<path style="fill:#6090af; stroke:none;" d="M231.667 234.333L232.333 234.667L231.667 234.333M432.333 234.667L432.667 235.333L432.333 234.667z"/>
<path style="fill:#e69f2a; stroke:none;" d="M131 235L132 236L131 235z"/>
<path style="fill:#6090af; stroke:none;" d="M358 235L358 238L359 238L358 235M360 235L360 238L361 238L360 235z"/>
<path style="fill:#e69f2a; stroke:none;" d="M134 237L135 238L134 237z"/>
<path style="fill:#6090af; stroke:none;" d="M323 238L323 241L324 241L323 238M325 238L325 241L326 241L325 238z"/>
<path style="fill:#e69f2a; stroke:none;" d="M136 239L137 240L136 239M361 239L362 240L361 239z"/>
<path style="fill:#6090af; stroke:none;" d="M431.333 239.667L431.667 240.333L431.333 239.667z"/>
<path style="fill:#e69f2a; stroke:none;" d="M137 240L138 241L137 240z"/>
<path style="fill:#6090af; stroke:none;" d="M359.333 240.667L359.667 241.333L359.333 240.667M361.333 240.667L361.667 241.333L361.333 240.667z"/>
<path style="fill:#e69f2a; stroke:none;" d="M124.001 241.809C112.426 242.111 113.468 259.623 124.996 258.823C135.658 258.082 134.858 241.525 124.001 241.809M322 242L323 243L322 242M359 242L360 243L359 242z"/>
<path style="fill:#6090af; stroke:none;" d="M322.333 243.667L322.667 244.333L322.333 243.667M324.333 243.667L324.667 244.333L324.333 243.667M430 243L430 246L431 246L430 243z"/>
<path style="fill:#e69f2a; stroke:none;" d="M139 244L140 245L139 244z"/>
<path style="fill:#6090af; stroke:none;" d="M360 244L360 247L361 247L360 244M362 244L362 247L363 247L362 244z"/>
<path style="fill:#e69f2a; stroke:none;" d="M108 245L109 246L108 245z"/>
<path style="fill:#6090af; stroke:none;" d="M238 245L238 249L239 249L238 245z"/>
<path style="fill:#e69f2a; stroke:none;" d="M324 245L325 246L324 245M140 247L140 253L141 253L140 247M321 247L322 248L321 247z"/>
<path style="fill:#6090af; stroke:none;" d="M323 247L323 250L324 250L323 247M321.333 248.667L321.667 249.333L321.333 248.667M429.333 248.667L429.667 249.333L429.333 248.667M361 249L361 252L362 252L361 249M363 249L363 252L364 252L363 249M320 252L320 255L321 255L320 252M322 252L322 255L323 255L322 252z"/>
<path style="fill:#e69f2a; stroke:none;" d="M424 252L425 253L424 252z"/>
<path style="fill:#6090af; stroke:none;" d="M426 252L427 255L426 252z"/>
<path style="fill:#e69f2a; stroke:none;" d="M364 253L365 254L364 253z"/>
<path style="fill:#6090af; stroke:none;" d="M428.333 253.667L428.667 254.333L428.333 253.667M237 254C231.055 260.094 216.187 260.254 208 262.72C190.954 267.854 177.019 275.732 162 285L162 286L204 284.83L238 284L237 254M362.333 254.667L362.667 255.333L362.333 254.667M364.333 254.667L364.667 255.333L364.333 254.667z"/>
<path style="fill:#e69f2a; stroke:none;" d="M108 255L109 256L108 255M139 256L140 257L139 256M362 256L363 257L362 256M109 257L110 258L109 257z"/>
<path style="fill:#6090af; stroke:none;" d="M319.333 257.667L319.667 258.333L319.333 257.667M321.333 257.667L321.667 258.333L321.333 257.667z"/>
<path style="fill:#e69f2a; stroke:none;" d="M425 257L426 258L425 257M138 258L139 259L138 258z"/>
<path style="fill:#6090af; stroke:none;" d="M363 258L363 261L364 261L363 258M365 258L365 261L366 261L365 258M425.333 258.667L425.667 259.333L425.333 258.667M427.333 258.667L427.667 259.333L427.333 258.667z"/>
<path style="fill:#e69f2a; stroke:none;" d="M321 259L322 260L321 259M98 267L98 268L112 269C102.221 275.653 94.0942 284.34 94.0787 297C94.0501 320.423 120.935 336.101 141 323.441C157.398 313.094 160.123 288.535 145.96 275.105C137.928 267.489 129.398 269.22 120 266.142C116.662 265.049 113.558 261.188 110 261.177C106.359 261.165 101.335 265.41 98 267M136 261L137 262L136 261M318 261L319 262L318 261z"/>
<path style="fill:#6090af; stroke:none;" d="M320 261L320 264L321 264L320 261z"/>
<path style="fill:#e69f2a; stroke:none;" d="M135 262L136 263L135 262z"/>
<path style="fill:#6090af; stroke:none;" d="M318.333 262.667L318.667 263.333L318.333 262.667M424.333 262.667L424.667 263.333L424.333 262.667M426.333 262.667L426.667 263.333L426.333 262.667M427 265C423.079 282.648 441.145 295.116 458 289.03C466.617 285.919 470.357 278.108 473 270L471 263L427 265M321 265L318 278L327 293L327 286C338.017 291.629 352.025 292.347 360.66 281.985C363.196 278.941 366.708 273.574 365.058 269.443C360.3 257.53 330.461 263.217 321 265M364 263L365 264L364 263z"/>
<path style="fill:#e69f2a; stroke:none;" d="M366.004 264.344C362.799 264.408 363.661 269.344 366.737 268.824C369.389 268.375 368.466 264.295 366.004 264.344z"/>
<path style="fill:#bc6123; stroke:none;" d="M472 263L472 264L475 265L472 263z"/>
<path style="fill:#e69f2a; stroke:none;" d="M132 264L133 265L132 264M317 270L321 264C316.609 264.351 315.392 265.793 317 270M427 264C418.866 265.353 426.3 272.763 427 264M470 264C470.717 272.986 478.893 265.422 470 264M130 265L131 266L130 265z"/>
<path style="fill:#bc6123; stroke:none;" d="M123 277.479C96.521 280.542 101.686 320.124 128 316.815C152.73 313.705 147.725 274.619 123 277.479z"/>
<path style="fill:#0d161c; stroke:none;" d="M319 277C314.581 280.48 311.646 282.481 306 281C309.913 299.647 338.226 300.116 347.168 318C352.911 329.486 346.947 338.57 345.3 350C343.893 359.768 346.349 368.097 350 377L351 377C352.537 357.53 356.591 328.535 346.07 311C340.8 302.216 331.488 298.628 325.527 290.985C322.208 286.73 323.823 281.424 319 277z"/>
<path style="fill:#e69f2a; stroke:none;" d="M306 280L307 281L306 280z"/>
<path style="fill:#6090af; stroke:none;" d="M307 280L314 282L314 281L307 280z"/>
<path style="fill:#e69f2a; stroke:none;" d="M308 280L309 281L308 280z"/>
<path style="fill:#6090af; stroke:none;" d="M306.333 283.667L306.667 284.333L306.333 283.667M158 286L158 294L159 294L158 286M238 286L239 287L238 286M307 287L308 288L307 287M239 288L240 289L239 288M240 290L241 291L240 290M309 290L310 291L309 290M241 291L242 292L241 291M310 291L311 292L310 291M244.667 293.333L245.333 293.667L244.667 293.333M313.667 293.333L314.333 293.667L313.667 293.333M328 293L329 294L328 293z"/>
<path style="fill:#e69f2a; stroke:none;" d="M158 294L159 295L158 294z"/>
<path style="fill:#6090af; stroke:none;" d="M247 294L248 295L247 294M316 294L317 295L316 294M329 294L330 295L329 294M250 295L251 296L250 295M319 295L320 296L319 295z"/>
<path style="fill:#e69f2a; stroke:none;" d="M331 295L332 296L331 295z"/>
<path style="fill:#6090af; stroke:none;" d="M252 296L253 297L252 296M321 296L322 297L321 296M332 296L333 297L332 296M254 297L255 298L254 297M323 297L324 298L323 297M333 297L334 298L333 297M159 298L159 301L160 301L159 298M256 298L257 299L256 298z"/>
<path style="fill:#e69f2a; stroke:none;" d="M325 298L326 299L325 298z"/>
<path style="fill:#6090af; stroke:none;" d="M334 298L335 299L334 298M258 299L259 300L258 299M327 299L328 300L327 299M260 300L261 301L260 300M329 300L330 301L329 300z"/>
<path style="fill:#e69f2a; stroke:none;" d="M337 300L338 301L337 300z"/>
<path style="fill:#6090af; stroke:none;" d="M262 301L263 302L262 301M331 301L332 302L331 301z"/>
<path style="fill:#e69f2a; stroke:none;" d="M338 301L339 302L338 301M339 302L340 303L339 302z"/>
<path style="fill:#6090af; stroke:none;" d="M160.333 303.667L160.667 304.333L160.333 303.667M265 303L266 304L265 303M334 303L335 304L334 303z"/>
<path style="fill:#e69f2a; stroke:none;" d="M340 303L341 304L340 303z"/>
<path style="fill:#6090af; stroke:none;" d="M266 304L267 305L266 304M335 304L336 305L335 304z"/>
<path style="fill:#e69f2a; stroke:none;" d="M341 304L342 305L341 304z"/>
<path style="fill:#6090af; stroke:none;" d="M161.333 306.667L161.667 307.333L161.333 306.667M269 306L270 307L269 306M338 306L339 307L338 306M270 307L271 308L270 307M339 307L340 308L339 307M343 307L344 308L343 307M271 308L272 309L271 308M340 308L341 309L340 308M344 308L345 309L344 308M162 309L163 310L162 309M272 309L273 310L272 309M341 309L342 310L341 309z"/>
<path style="fill:#e69f2a; stroke:none;" d="M345 309L346 310L345 309z"/>
<path style="fill:#6090af; stroke:none;" d="M273 310L274 311L273 310M342 310L343 311L342 310M163 311L164 312L163 311M274 311L275 312L274 311M346 311L347 312L346 311M164 313L165 314L164 313M344 313L345 314L344 313M347 313L348 314L347 313M276 314L277 315L276 314M345 314L346 315L345 314M165 315L166 316L165 315M348 315L349 316L348 315M166 316L167 317L166 316M277 316L278 317L277 316M346 316L347 317L346 316M349.333 317.667L349.667 318.333L349.333 317.667z"/>
<path style="fill:#e69f2a; stroke:none;" d="M167 318L168 319L167 318z"/>
<path style="fill:#6090af; stroke:none;" d="M278 318L279 319L278 318M347 318L348 319L347 318M168 319L169 320L168 319z"/>
<path style="fill:#e69f2a; stroke:none;" d="M403 319L402 323L403 323L403 319z"/>
<path style="fill:#6090af; stroke:none;" d="M169 320L170 321L169 320M279 320L280 321L279 320M348.333 320.667L348.667 321.333L348.333 320.667M170 321L171 322L170 321M350 321L350 324L351 324L350 321M171 322L172 323L171 322M172 323L173 324L172 323M280.333 323.667L280.667 324.333L280.333 323.667z"/>
<path style="fill:#e69f2a; stroke:none;" d="M401.333 323.667L401.667 324.333L401.333 323.667z"/>
<path style="fill:#6090af; stroke:none;" d="M173 324L174 325L173 324M349 324L349 327L350 327L349 324z"/>
<path style="fill:#bc6123; stroke:none;" d="M402 324C391.499 346.492 362.257 360.277 358 385C374.536 377.132 386.44 359.309 395.547 344C398.638 338.804 404.18 330.146 402 324z"/>
<path style="fill:#e69f2a; stroke:none;" d="M403 324L403 327L404 327L403 324M400.333 325.667L400.667 326.333L400.333 325.667z"/>
<path style="fill:#6090af; stroke:none;" d="M176 326L177 327L176 326M178 327L179 328L178 327z"/>
<path style="fill:#e69f2a; stroke:none;" d="M351 327L352 328L351 327M399.333 327.667L399.667 328.333L399.333 327.667M93 328L93 334L94 334L93 328z"/>
<path style="fill:#bc6123; stroke:none;" d="M94 328L94 334L199 334C168.731 320.943 126.454 328 94 328z"/>
<path style="fill:#6090af; stroke:none;" d="M351 328L351 334L352 334L351 328M402 328L403 329L402 328z"/>
<path style="fill:#bc6123; stroke:none;" d="M397 329L398 330L397 329z"/>
<path style="fill:#e69f2a; stroke:none;" d="M398 329L399 330L398 329M402 329L403 330L402 329M49 330L48 338L49 338L49 333L50 333L52 336L49 330z"/>
<path style="fill:#bc6123; stroke:none;" d="M396 330L397 331L396 330M395 331C381.921 343.482 352.018 345.65 352 367C351.995 373.391 350.443 379.627 357 383C361.275 368.159 373.612 358.638 383.985 348C387.824 344.063 395.809 336.898 395 331z"/>
<path style="fill:#e69f2a; stroke:none;" d="M397 331L398 332L397 331z"/>
<path style="fill:#6090af; stroke:none;" d="M401 331L402 332L401 331M349 332L349 335L350 335L349 332z"/>
<path style="fill:#e69f2a; stroke:none;" d="M396 332L392 339L396 332M401 332L402 333L401 332z"/>
<path style="fill:#6090af; stroke:none;" d="M49.3333 333.667L49.6667 334.333L49.3333 333.667z"/>
<path style="fill:#bc6123; stroke:none;" d="M205 334L205 335C218.646 342.099 217.882 362.556 201 364.812C166.642 369.402 128.693 365 94 365L94 371L250 371L250 333L205 334z"/>
<path style="fill:#6090af; stroke:none;" d="M395 333L396 334L395 333M401 333L388 354L388 355L390 367C393.152 366.184 398.841 366.012 400.972 363.272C404.49 358.751 403.135 338.089 401 333z"/>
<path style="fill:#e69f2a; stroke:none;" d="M203.667 334.333L204.333 334.667L203.667 334.333z"/>
<path style="fill:#6090af; stroke:none;" d="M280.333 334.667L280.667 335.333L280.333 334.667M396 334L397 335L396 334z"/>
<path style="fill:#bc6123; stroke:none;" d="M49 335L61 384C51.0021 374.88 37.5038 372.216 27.0008 363.985C23.6347 361.346 19.3707 354.508 15 356L13 350L12 350C12.1437 367.132 24.7619 378.737 32.2153 393C41.4456 410.663 39.6531 432.865 60 443L61 412L89 412L89 411C74.5736 403.515 76.6733 389.234 71.9097 376C68.7175 367.132 62.0167 359.987 57.2037 352C53.9332 346.573 52.3397 340.282 49 335z"/>
<path style="fill:#e69f2a; stroke:none;" d="M206 335L207 336L206 335M389 335L390 336L389 335z"/>
<path style="fill:#6090af; stroke:none;" d="M395 335L396 336L395 335M50 336L50 338L52 336L50 336z"/>
<path style="fill:#e69f2a; stroke:none;" d="M208 336L209 337L208 336M388 336L389 337L388 336z"/>
<path style="fill:#6090af; stroke:none;" d="M393 336L394 337L393 336z"/>
<path style="fill:#e69f2a; stroke:none;" d="M51 337L51 339L53 337L51 337M209 337L210 338L209 337z"/>
<path style="fill:#6090af; stroke:none;" d="M387 337L388 338L387 337M392 337L393 338L392 337z"/>
<path style="fill:#bc6123; stroke:none;" d="M52 338L53 339L52 338z"/>
<path style="fill:#6090af; stroke:none;" d="M279.333 338.667L279.667 339.333L279.333 338.667M348 338L349 339L348 338z"/>
<path style="fill:#e69f2a; stroke:none;" d="M385 338L386 339L385 338z"/>
<path style="fill:#6090af; stroke:none;" d="M393 338L394 339L393 338M51 341L54 340L51 341z"/>
<path style="fill:#e69f2a; stroke:none;" d="M383 339L384 340L383 339z"/>
<path style="fill:#6090af; stroke:none;" d="M384 339L385 340L384 339M390 343L375 357L384 348L385 347L387 348L393 340L390 343z"/>
<path style="fill:#e69f2a; stroke:none;" d="M52.3333 340.667L52.6667 341.333L52.3333 340.667z"/>
<path style="fill:#bc6123; stroke:none;" d="M53 340L76 385L77 385L85 374C79.8383 358.866 64.5998 350.034 53 340z"/>
<path style="fill:#e69f2a; stroke:none;" d="M54 340L55 341L54 340M212 340L213 341L212 340z"/>
<path style="fill:#6090af; stroke:none;" d="M382 340L383 341L382 340z"/>
<path style="fill:#e69f2a; stroke:none;" d="M391 340L392 341L391 340z"/>
<path style="fill:#6090af; stroke:none;" d="M49 341L50 342L49 341M53 341L52 343L54 343L53 341M278.333 341.667L278.667 342.333L278.333 341.667M347 341L348 342L347 341z"/>
<path style="fill:#e69f2a; stroke:none;" d="M379 341L380 342L379 341z"/>
<path style="fill:#6090af; stroke:none;" d="M380 341L381 342L380 341z"/>
<path style="fill:#e69f2a; stroke:none;" d="M390 341L391 342L390 341M49.3333 342.667L49.6667 343.333L49.3333 342.667z"/>
<path style="fill:#6090af; stroke:none;" d="M55 342L56 343L55 342z"/>
<path style="fill:#e69f2a; stroke:none;" d="M213 342L214 343L213 342M377 342L378 343L377 342z"/>
<path style="fill:#6090af; stroke:none;" d="M378 342L379 343L378 342z"/>
<path style="fill:#e69f2a; stroke:none;" d="M389 342L390 343L389 342M53 343L54 344L53 343M56 343L57 344L56 343z"/>
<path style="fill:#6090af; stroke:none;" d="M346.333 343.667L346.667 344.333L346.333 343.667z"/>
<path style="fill:#e69f2a; stroke:none;" d="M374 343L375 344L374 343z"/>
<path style="fill:#6090af; stroke:none;" d="M375 343L376 344L375 343z"/>
<path style="fill:#e69f2a; stroke:none;" d="M388 343L389 344L388 343z"/>
<path style="fill:#6090af; stroke:none;" d="M53 344L53 346L55 344L53 344z"/>
<path style="fill:#e69f2a; stroke:none;" d="M57 344L58 345L57 344M214 344L215 345L214 344z"/>
<path style="fill:#6090af; stroke:none;" d="M277.333 344.667L277.667 345.333L277.333 344.667z"/>
<path style="fill:#e69f2a; stroke:none;" d="M352 344L352 353L353 353L352 344M371 344L372 345L371 344z"/>
<path style="fill:#6090af; stroke:none;" d="M372 344L373 345L372 344M50 345L51 346L50 345z"/>
<path style="fill:#e69f2a; stroke:none;" d="M54 345L57 352L58 352L54 345M58 345L59 346L58 345M369 345L370 346L369 345M387 345L388 346L387 345M50 346L51 347L50 346z"/>
<path style="fill:#6090af; stroke:none;" d="M55 346L56 347L55 346z"/>
<path style="fill:#e69f2a; stroke:none;" d="M59 346L60 347L59 346z"/>
<path style="fill:#6090af; stroke:none;" d="M367 346L368 347L367 346z"/>
<path style="fill:#e69f2a; stroke:none;" d="M386 346L387 347L386 346z"/>
<path style="fill:#6090af; stroke:none;" d="M54 347L55 348L54 347z"/>
<path style="fill:#e69f2a; stroke:none;" d="M60 347L61 348L60 347z"/>
<path style="fill:#6090af; stroke:none;" d="M345.333 347.667L345.667 348.333L345.333 347.667M365 347L366 348L365 347z"/>
<path style="fill:#e69f2a; stroke:none;" d="M385 347L386 348L385 347z"/>
<path style="fill:#bc6123; stroke:none;" d="M12 348L13 349L12 348z"/>
<path style="fill:#6090af; stroke:none;" d="M51 348L52 349L51 348M56 348L57 349L56 348z"/>
<path style="fill:#e69f2a; stroke:none;" d="M61 348L62 349L61 348z"/>
<path style="fill:#6090af; stroke:none;" d="M276.333 348.667L276.667 349.333L276.333 348.667z"/>
<path style="fill:#e69f2a; stroke:none;" d="M363 348L364 349L363 348M384 348L385 349L384 348z"/>
<path style="fill:#6090af; stroke:none;" d="M12.6667 349.333L13.3333 349.667L12.6667 349.333z"/>
<path style="fill:#e69f2a; stroke:none;" d="M51 349L52 350L51 349z"/>
<path style="fill:#6090af; stroke:none;" d="M55 349L56 350L55 349M62 349L63 350L62 349z"/>
<path style="fill:#e69f2a; stroke:none;" d="M361 349L362 350L361 349M383 349L382 351L383 349M13.3333 350.667L13.6667 351.333L13.3333 350.667z"/>
<path style="fill:#6090af; stroke:none;" d="M57 350L58 351L57 350M63 350L64 351L63 350z"/>
<path style="fill:#e69f2a; stroke:none;" d="M64 350L65 351L64 350z"/>
<path style="fill:#6090af; stroke:none;" d="M360 350L361 351L360 350M14 351L14 355L14 351M52 351L53 352L52 351z"/>
<path style="fill:#e69f2a; stroke:none;" d="M65 351L66 352L65 351z"/>
<path style="fill:#6090af; stroke:none;" d="M359 351L360 352L359 351z"/>
<path style="fill:#e69f2a; stroke:none;" d="M381 351L382 352L381 351M52 352L53 353L52 352z"/>
<path style="fill:#6090af; stroke:none;" d="M57 352L57 353L58 355L61 356L61 359L62 359L62 356L59 355L57 352z"/>
<path style="fill:#e69f2a; stroke:none;" d="M67 352L68 353L67 352z"/>
<path style="fill:#6090af; stroke:none;" d="M344 352L344 361L345 361L344 352z"/>
<path style="fill:#e69f2a; stroke:none;" d="M357 352L358 353L357 352M380 352L381 353L380 352M14 353L15 354L14 353z"/>
<path style="fill:#6090af; stroke:none;" d="M53 353L54 354L53 353z"/>
<path style="fill:#e69f2a; stroke:none;" d="M58 353L59 354L58 353M69 353L70 354L69 353M214.333 353.667L214.667 354.333L214.333 353.667M356 353L357 354L356 353M379 353L380 354L379 353M53 354L54 355L53 354M59 354L60 355L59 354z"/>
<path style="fill:#6090af; stroke:none;" d="M70 354L71 355L70 354z"/>
<path style="fill:#e69f2a; stroke:none;" d="M355 354L356 355L355 354M378 354L379 355L378 354M15 355L16 356L15 355z"/>
<path style="fill:#6090af; stroke:none;" d="M71 355L72 356L71 355z"/>
<path style="fill:#e69f2a; stroke:none;" d="M72 355L73 356L72 355z"/>
<path style="fill:#6090af; stroke:none;" d="M275 355L275 358L276 358L275 355z"/>
<path style="fill:#e69f2a; stroke:none;" d="M354 355L355 356L354 355M377 355L378 356L377 355M444 355L439 361C441.352 359.538 445.359 358.057 444 355z"/>
<path style="fill:#6090af; stroke:none;" d="M16 356L17 357L16 356z"/>
<path style="fill:#e69f2a; stroke:none;" d="M54 356L55 357L54 356M60 356L61 357L60 356M73 356L74 357L73 356M213 356L214 357L213 356M353 356L354 357L353 356M376 356L377 357L376 356M387 356L388 357L387 356M16 357L17 358L16 357M61 357L62 358L61 357z"/>
<path style="fill:#6090af; stroke:none;" d="M74 357L75 358L74 357z"/>
<path style="fill:#e69f2a; stroke:none;" d="M352 357L353 358L352 357M364 369L376 358C370.732 357.888 366.658 364.982 364 369M386 357L387 358L386 357z"/>
<path style="fill:#bc6123; stroke:none;" d="M443 357L434 366L439 360L428 370L432 368L422 383C429.107 378.554 444.604 366.638 443 357z"/>
<path style="fill:#e69f2a; stroke:none;" d="M17 358L18 359L17 358z"/>
<path style="fill:#6090af; stroke:none;" d="M55 358L56 359L55 358z"/>
<path style="fill:#e69f2a; stroke:none;" d="M62 358L65 362L62 358z"/>
<path style="fill:#6090af; stroke:none;" d="M75 358L76 359L75 358z"/>
<path style="fill:#e69f2a; stroke:none;" d="M212 358L213 359L212 358z"/>
<path style="fill:#6090af; stroke:none;" d="M374 358L375 359L374 358M385 358L386 359L385 358M17.6667 359.333L18.3333 359.667L17.6667 359.333M63 359L64 360L63 359M76 359L77 360L76 359z"/>
<path style="fill:#e69f2a; stroke:none;" d="M211 359L212 360L211 359z"/>
<path style="fill:#6090af; stroke:none;" d="M373 359L374 360L373 359M439 359L440 360L439 359M441 359L442 360L441 359z"/>
<path style="fill:#e69f2a; stroke:none;" d="M443 359L444 360L443 359M18 360L19 361L18 360z"/>
<path style="fill:#6090af; stroke:none;" d="M56 360L57 361L56 360M62 360L63 361L62 360M64 360L65 361L64 360M77 360L78 361L77 360z"/>
<path style="fill:#e69f2a; stroke:none;" d="M210 360L211 361L210 360z"/>
<path style="fill:#6090af; stroke:none;" d="M372 360L373 361L372 360z"/>
<path style="fill:#e69f2a; stroke:none;" d="M384 360L385 361L384 360M437 360L438 361L437 360z"/>
<path style="fill:#6090af; stroke:none;" d="M440 360L441 361L440 360M18.6667 361.333L19.3333 361.667L18.6667 361.333z"/>
<path style="fill:#e69f2a; stroke:none;" d="M56 361L57 362L56 361z"/>
<path style="fill:#6090af; stroke:none;" d="M63 361L64 362L63 361M78 361L79 362L78 361z"/>
<path style="fill:#e69f2a; stroke:none;" d="M209 361L210 362L209 361z"/>
<path style="fill:#6090af; stroke:none;" d="M371 361L372 362L371 361M436 361L437 362L436 361M438 361L435 366L440 361L438 361M442 361L443 362L442 361z"/>
<path style="fill:#e69f2a; stroke:none;" d="M19 362L20 363L19 362z"/>
<path style="fill:#6090af; stroke:none;" d="M57 362L58 363L57 362M64 362L64 363L66 366L67 366L64 362z"/>
<path style="fill:#e69f2a; stroke:none;" d="M79 362L80 363L79 362z"/>
<path style="fill:#6090af; stroke:none;" d="M370 362L371 363L370 362z"/>
<path style="fill:#e69f2a; stroke:none;" d="M383 362L384 363L383 362M434 362L435 363L434 362M20 363L21 364L20 363M57 363L58 364L57 363M65 363L66 364L65 363M80 363L81 364L80 363M206 363L207 364L206 363z"/>
<path style="fill:#6090af; stroke:none;" d="M276 363L276 366L277 366L276 363M369 363L370 364L369 363M382 363L383 364L382 363M433 363L434 364L433 363z"/>
<path style="fill:#e69f2a; stroke:none;" d="M436 363L437 364L436 363M441 363L442 364L441 363z"/>
<path style="fill:#6090af; stroke:none;" d="M20.6667 364.333L21.3333 364.667L20.6667 364.333z"/>
<path style="fill:#e69f2a; stroke:none;" d="M66 364L67 365L66 364z"/>
<path style="fill:#6090af; stroke:none;" d="M80 364L81 365L80 364z"/>
<path style="fill:#e69f2a; stroke:none;" d="M202.667 364.333L203.333 364.667L202.667 364.333z"/>
<path style="fill:#6090af; stroke:none;" d="M345.333 364.667L345.667 365.333L345.333 364.667M367 364L368 365L367 364z"/>
<path style="fill:#e69f2a; stroke:none;" d="M382 364L383 365L382 364z"/>
<path style="fill:#6090af; stroke:none;" d="M431 364L432 365L431 364z"/>
<path style="fill:#e69f2a; stroke:none;" d="M435 364L436 365L435 364M21 365L22 366L21 365z"/>
<path style="fill:#6090af; stroke:none;" d="M58 365L59 366L58 365z"/>
<path style="fill:#e69f2a; stroke:none;" d="M67 365L72 376L73 376L67 365M81 365L82 366L81 365M93 365L93 370L94 370L93 365z"/>
<path style="fill:#6090af; stroke:none;" d="M366 365L367 366L366 365M381 365L382 366L381 365M429 365L430 366L429 365z"/>
<path style="fill:#e69f2a; stroke:none;" d="M434 365L435 366L434 365M22 366L23 367L22 366M58 366L59 367L58 366z"/>
<path style="fill:#6090af; stroke:none;" d="M68 366L69 367L68 366M365 366L366 367L365 366z"/>
<path style="fill:#e69f2a; stroke:none;" d="M381 366L382 367L381 366z"/>
<path style="fill:#6090af; stroke:none;" d="M428.333 366.667L428.667 367.333L428.333 366.667z"/>
<path style="fill:#e69f2a; stroke:none;" d="M433 366L432 368L433 366M439 366L440 367L439 366z"/>
<path style="fill:#6090af; stroke:none;" d="M22 367L25 369L22 367M67 367L68 368L67 367M69 367L70 368L69 367z"/>
<path style="fill:#e69f2a; stroke:none;" d="M82 367L83 368L82 367z"/>
<path style="fill:#6090af; stroke:none;" d="M277.333 367.667L277.667 368.333L277.333 367.667M364 367L365 368L364 367M366 367L367 368L366 367M438 367L439 368L438 367M68 368L69 369L68 368M346.333 368.667L346.667 369.333L346.333 368.667M365 368L366 369L365 368z"/>
<path style="fill:#e69f2a; stroke:none;" d="M380 368L381 369L380 368z"/>
<path style="fill:#6090af; stroke:none;" d="M430 368L429 371L430 368z"/>
<path style="fill:#e69f2a; stroke:none;" d="M431 368L432 369L431 368M24 369L25 370L24 369z"/>
<path style="fill:#6090af; stroke:none;" d="M59 369L60 370L59 369M70 369L71 370L70 369z"/>
<path style="fill:#e69f2a; stroke:none;" d="M83 369L84 370L83 369z"/>
<path style="fill:#6090af; stroke:none;" d="M363 372L364 372L365 370L363 372M375.667 369.333L376.333 369.667L375.667 369.333z"/>
<path style="fill:#e69f2a; stroke:none;" d="M377 369L378 370L377 369M25 370L27 372L25 370M59.3333 370.667L59.6667 371.333L59.3333 370.667z"/>
<path style="fill:#6090af; stroke:none;" d="M69 370L70 371L69 370M77 384L78 384L80 382C82.4737 386.667 87.2659 388.233 89.9869 392.379C95.1275 400.212 94.3015 407.583 105 411L105 412L95 412L95 413L199 413L251 414L250 371L120 371C105.179 371 82.7882 365.875 77 384M278.333 370.667L278.667 371.333L278.333 370.667z"/>
<path style="fill:#e69f2a; stroke:none;" d="M363 370L364 371L363 370M428 370L429 371L428 370z"/>
<path style="fill:#6090af; stroke:none;" d="M25 371L26 372L25 371M71 371L72 372L71 371z"/>
<path style="fill:#e69f2a; stroke:none;" d="M84 371L85 372L84 371z"/>
<path style="fill:#6090af; stroke:none;" d="M347 371L348 372L347 371z"/>
<path style="fill:#e69f2a; stroke:none;" d="M362 371L361 374L362 371M373 371L374 372L373 371M427 371L428 372L427 371M435 371L436 372L435 371z"/>
<path style="fill:#6090af; stroke:none;" d="M26 372L26 373L30 375L26 372M70 372L71 373L70 372M84 372L85 373L84 372M351 372L351 377L352 377L351 372M361 372L362 373L361 372M372 372L373 373L372 372z"/>
<path style="fill:#e69f2a; stroke:none;" d="M434 372L435 373L434 372z"/>
<path style="fill:#6090af; stroke:none;" d="M43 373L44 374L43 373z"/>
<path style="fill:#e69f2a; stroke:none;" d="M44 373L45 374L44 373z"/>
<path style="fill:#6090af; stroke:none;" d="M72 373L73 374L72 373M279 373L280 374L279 373M348 373L349 374L348 373z"/>
<path style="fill:#e69f2a; stroke:none;" d="M433 373L434 374L433 373M28 374L29 375L28 374M46 374L47 375L46 374z"/>
<path style="fill:#6090af; stroke:none;" d="M71 374L72 375L71 374M360.667 374.333L361.333 374.667L360.667 374.333z"/>
<path style="fill:#e69f2a; stroke:none;" d="M371 374L372 375L371 374z"/>
<path style="fill:#6090af; stroke:none;" d="M426 374L427 375L426 374z"/>
<path style="fill:#e69f2a; stroke:none;" d="M432 374L433 375L432 374M29 375L30 376L29 375z"/>
<path style="fill:#6090af; stroke:none;" d="M48 375L49 376L48 375M60.3333 375.667L60.6667 376.333L60.3333 375.667M280 375L281 376L280 375M349 375L350 376L349 375z"/>
<path style="fill:#e69f2a; stroke:none;" d="M360 375L361 376L360 375M370 375L371 376L370 375M431 375L432 376L431 375M30 376L31 377L30 376z"/>
<path style="fill:#6090af; stroke:none;" d="M50 376L51 377L50 376M72 376L72 378L74 376L72 376z"/>
<path style="fill:#eedbce; stroke:none;" d="M250 407L250 376L163 376C152.189 376 137.496 375.398 136.391 390C135.259 404.954 149.787 407 161 407L250 407z"/>
<path style="fill:#6090af; stroke:none;" d="M359.667 376.333L360.333 376.667L359.667 376.333M369 376L370 377L369 376z"/>
<path style="fill:#e69f2a; stroke:none;" d="M425 376L426 377L425 376M430 376L431 377L430 376M31 377L32 378L31 377z"/>
<path style="fill:#6090af; stroke:none;" d="M52 377L53 378L52 377z"/>
<path style="fill:#e69f2a; stroke:none;" d="M60 377L59 383L60 377M73.3333 377.667L73.6667 378.333L73.3333 377.667z"/>
<path style="fill:#6090af; stroke:none;" d="M350 377L351 378L350 377z"/>
<path style="fill:#e69f2a; stroke:none;" d="M359 377L360 378L359 377z"/>
<path style="fill:#6090af; stroke:none;" d="M368 377L369 378L368 377z"/>
<path style="fill:#e69f2a; stroke:none;" d="M429 377L430 378L429 377M32 378L33 379L32 378M54 378L55 379L54 378z"/>
<path style="fill:#6090af; stroke:none;" d="M282 378L283 379L282 378M351 378L352 379L351 378M358 378L360 380L360 378L358 378M367 378L368 379L367 378z"/>
<path style="fill:#e69f2a; stroke:none;" d="M424 378L425 379L424 378M33 379L34 380L33 379z"/>
<path style="fill:#6090af; stroke:none;" d="M55 379L56 380L55 379M73 379L73 382L75 379L73 379M352 379L353 380L352 379z"/>
<path style="fill:#e69f2a; stroke:none;" d="M358.333 379.667L358.667 380.333L358.333 379.667M366 379L367 380L366 379M34 380L35 381L34 380z"/>
<path style="fill:#6090af; stroke:none;" d="M357 380L357 382L359 382L357 380z"/>
<path style="fill:#e69f2a; stroke:none;" d="M365 380L366 381L365 380z"/>
<path style="fill:#6090af; stroke:none;" d="M423 380L424 381L423 380M425 380L426 381L425 380z"/>
<path style="fill:#e69f2a; stroke:none;" d="M35 381L36 382L35 381M58 381L59 382L58 381M74 381L74 385L75 385L74 381z"/>
<path style="fill:#6090af; stroke:none;" d="M284 381L285 382L284 381z"/>
<path style="fill:#e69f2a; stroke:none;" d="M424 381L425 382L424 381M36 382L37 383L36 382z"/>
<path style="fill:#0d161c; stroke:none;" d="M78 382C72.6113 402.828 85.6144 412 105 412L105 411C94.9441 406.215 95.4861 399.438 89.9869 391.609C87.4214 387.956 82.8469 385.657 80 382L78 382z"/>
<path style="fill:#6090af; stroke:none;" d="M285 382L286 383L285 382z"/>
<path style="fill:#e69f2a; stroke:none;" d="M354 382L355 383L354 382M357 382L355 383L359 386L359 385L357 382z"/>
<path style="fill:#6090af; stroke:none;" d="M362 382L363 383L362 382z"/>
<path style="fill:#e69f2a; stroke:none;" d="M423 382L424 383L423 382M37 383L38 384L37 383z"/>
<path style="fill:#6090af; stroke:none;" d="M60 383L61 384L60 383M75 383L76 387L75 391L76 391L75 383M286 383L287 384L286 383M356 383L357 384L356 383z"/>
<path style="fill:#e69f2a; stroke:none;" d="M361 383L362 384L361 383z"/>
<path style="fill:#6090af; stroke:none;" d="M421 383L422 384L421 383z"/>
<path style="fill:#e69f2a; stroke:none;" d="M38 384L41 387L38 384z"/>
<path style="fill:#6090af; stroke:none;" d="M39 384L40 385L39 384M287 384L288 385L287 384M357 384L358 385L357 384M359 384L360 385L359 384z"/>
<path style="fill:#e69f2a; stroke:none;" d="M420 384L421 385L420 384z"/>
<path style="fill:#6090af; stroke:none;" d="M40 385L41 386L40 385M288 385L289 386L288 385M41 386L49 394L41 386M289 386L290 387L289 386z"/>
<path style="fill:#e69f2a; stroke:none;" d="M75.3333 387.667L75.6667 388.333L75.3333 387.667z"/>
<path style="fill:#6090af; stroke:none;" d="M292 388L293 389L292 388M293 389L294 390L293 389z"/>
<path style="fill:#e69f2a; stroke:none;" d="M414 389L415 390L414 389M435 389L430 393L427 399L435 394L434 391L435 389z"/>
<path style="fill:#6090af; stroke:none;" d="M295 390L296 391L295 390z"/>
<path style="fill:#e69f2a; stroke:none;" d="M412.667 390.333L413.333 390.667L412.667 390.333z"/>
<path style="fill:#6090af; stroke:none;" d="M297 391L298 392L297 391z"/>
<path style="fill:#e69f2a; stroke:none;" d="M410 391L411 392L410 391z"/>
<path style="fill:#bc6123; stroke:none;" d="M411 391L385 401C378.018 396.116 358.799 400 350 400L347 422L348 422C357.229 415.008 378.764 419.68 390 418.91C402.048 418.085 403.759 413.607 413.001 407.043C418.584 403.078 424.743 400.548 429 395L403 405L411 391z"/>
<path style="fill:#6090af; stroke:none;" d="M412 391L413 392L412 391M434 391L435 392L434 391z"/>
<path style="fill:#0d161c; stroke:none;" d="M108 393C112.111 412.654 127.544 412 144 412C139.938 408.925 135.755 406.35 132.854 401.999C131.143 399.432 130.727 394.932 128.272 393.028C124.346 389.982 112.429 391.691 108 393z"/>
<path style="fill:#6090af; stroke:none;" d="M408 392L409 393L408 392M411 392L412 393L411 392z"/>
<path style="fill:#bc6123; stroke:none;" d="M434 392L435 393L434 392z"/>
<path style="fill:#e69f2a; stroke:none;" d="M47 393L48 394L47 393M405 393L406 394L405 393z"/>
<path style="fill:#6090af; stroke:none;" d="M410 393L411 394L410 393M431 393L432 394L431 393z"/>
<path style="fill:#bc6123; stroke:none;" d="M433 393L434 394L433 393z"/>
<path style="fill:#e69f2a; stroke:none;" d="M48 394L49 395L48 394z"/>
<path style="fill:#6090af; stroke:none;" d="M302 394L302 435L303 435C303 423.304 306.511 404.75 302 394z"/>
<path style="fill:#0d161c; stroke:none;" d="M303 394L303 435L334 435C337.013 435 342.813 436.064 344.976 433.397C347.756 429.968 347.376 421.273 347.834 417C348.259 413.031 351.09 403.105 347.397 400.179C344.451 397.846 338.531 399.131 335 398.715C324.211 397.441 313.656 396.198 303 394z"/>
<path style="fill:#6090af; stroke:none;" d="M305 394L306 395L305 394M403 394L404 395L403 394M429 394L429 396L431 394L429 394M430 399L431 399L431 396L434 395L430 399z"/>
<path style="fill:#e69f2a; stroke:none;" d="M49 395L50 396L49 395z"/>
<path style="fill:#6090af; stroke:none;" d="M76 395L76 398L77 398L76 395M297 395L297 402L298 402L297 395M309.667 395.333L310.333 395.667L309.667 395.333z"/>
<path style="fill:#e69f2a; stroke:none;" d="M400 395L401 396L400 395M427 395L428 396L427 395z"/>
<path style="fill:#bc6123; stroke:none;" d="M432 395L431 397L432 395z"/>
<path style="fill:#e69f2a; stroke:none;" d="M433 395L434 396L433 395M50 396L51 397L50 396z"/>
<path style="fill:#6090af; stroke:none;" d="M315 396L315 397L319 397L315 396z"/>
<path style="fill:#e69f2a; stroke:none;" d="M396 396L397 397L396 396z"/>
<path style="fill:#6090af; stroke:none;" d="M397 396L398 397L397 396z"/>
<path style="fill:#e69f2a; stroke:none;" d="M408 396L409 397L408 396M424.667 396.333L425.333 396.667L424.667 396.333z"/>
<path style="fill:#6090af; stroke:none;" d="M428 396L429 397L428 396z"/>
<path style="fill:#e69f2a; stroke:none;" d="M432 396L433 397L432 396z"/>
<path style="fill:#6090af; stroke:none;" d="M50 397L53 399L50 397M323 397L323 398L328 398L323 397z"/>
<path style="fill:#e69f2a; stroke:none;" d="M391 397L392 398L391 397z"/>
<path style="fill:#6090af; stroke:none;" d="M392.667 397.333L393.333 397.667L392.667 397.333M407 397L408 398L407 397z"/>
<path style="fill:#e69f2a; stroke:none;" d="M421.667 397.333L422.333 397.667L421.667 397.333z"/>
<path style="fill:#6090af; stroke:none;" d="M427 397L428 398L427 397z"/>
<path style="fill:#bc6123; stroke:none;" d="M405 418C415.91 417.999 425.963 406.683 431 397C421.803 401.093 409.706 408.929 405 418z"/>
<path style="fill:#6090af; stroke:none;" d="M333 398L333 399L339 399L333 398z"/>
<path style="fill:#e69f2a; stroke:none;" d="M384 398L384 399L387 399L384 398z"/>
<path style="fill:#6090af; stroke:none;" d="M387 398L388 399L387 398z"/>
<path style="fill:#e69f2a; stroke:none;" d="M414.667 398.333L415.333 398.667L414.667 398.333z"/>
<path style="fill:#6090af; stroke:none;" d="M416.667 398.333L417.333 398.667L416.667 398.333M426 398L423 400L423 401L426 398z"/>
<path style="fill:#e69f2a; stroke:none;" d="M52 399L53 400L52 399z"/>
<path style="fill:#6090af; stroke:none;" d="M77 399L78 400L77 399M347 399L347 400L349 403L350 403L350 399L347 399z"/>
<path style="fill:#e69f2a; stroke:none;" d="M350 399L350 400L356 400L350 399M369 399L369 400L373 400L369 399z"/>
<path style="fill:#6090af; stroke:none;" d="M373 399L373 400L377 400L373 399M384.667 399.333L385.333 399.667L384.667 399.333z"/>
<path style="fill:#e69f2a; stroke:none;" d="M410.667 399.333L411.333 399.667L410.667 399.333M425 399L426 400L425 399z"/>
<path style="fill:#6090af; stroke:none;" d="M52.6667 400.333L53.3333 400.667L52.6667 400.333z"/>
<path style="fill:#e69f2a; stroke:none;" d="M384 400L385 401L384 400M405 400L406 401L405 400M408 400L409 401L408 400z"/>
<path style="fill:#6090af; stroke:none;" d="M409 400L410 401L409 400z"/>
<path style="fill:#e69f2a; stroke:none;" d="M424 400L425 401L424 400M429 400L430 401L429 400M53 401L54 402L53 401z"/>
<path style="fill:#6090af; stroke:none;" d="M78 401L79 402L78 401z"/>
<path style="fill:#e69f2a; stroke:none;" d="M383 401L384 402L383 401z"/>
<path style="fill:#6090af; stroke:none;" d="M407 401L408 402L407 401z"/>
<path style="fill:#e69f2a; stroke:none;" d="M421 403L424 402L421 403M428 401L429 402L428 401M54 402L55 403L54 402M297.333 402.667L297.667 403.333L297.333 402.667z"/>
<path style="fill:#6090af; stroke:none;" d="M382.667 402.333L383.333 402.667L382.667 402.333z"/>
<path style="fill:#e69f2a; stroke:none;" d="M404 402L404 404L406 402L404 402z"/>
<path style="fill:#6090af; stroke:none;" d="M420 402L418 403L418 404L420 402M422 402L423 403L422 402z"/>
<path style="fill:#e69f2a; stroke:none;" d="M427 402L428 403L427 402z"/>
<path style="fill:#6090af; stroke:none;" d="M54.6667 403.333L55.3333 403.667L54.6667 403.333M79 403L80 404L79 403z"/>
<path style="fill:#e69f2a; stroke:none;" d="M382 403L383 404L382 403z"/>
<path style="fill:#6090af; stroke:none;" d="M403.333 403.667L403.667 404.333L403.333 403.667z"/>
<path style="fill:#e69f2a; stroke:none;" d="M419 403L420 404L419 403M426 403L427 404L426 403M55 404L56 405L55 404z"/>
<path style="fill:#6090af; stroke:none;" d="M80 404L81 405L80 404z"/>
<path style="fill:#e69f2a; stroke:none;" d="M381 404L382 405L381 404z"/>
<path style="fill:#6090af; stroke:none;" d="M416 404L415 407L412 409C408.64 409.582 407.582 410.64 407 414L403 417L403 418L405 415L413 407L418 406L416 404z"/>
<path style="fill:#e69f2a; stroke:none;" d="M417.667 404.333L418.333 404.667L417.667 404.333z"/>
<path style="fill:#6090af; stroke:none;" d="M55 405L56 406L55 405M81 405L82 406L81 405z"/>
<path style="fill:#e69f2a; stroke:none;" d="M380 405L379 407L380 405M416 405L417 406L416 405z"/>
<path style="fill:#6090af; stroke:none;" d="M423 405L424 406L423 405z"/>
<path style="fill:#e69f2a; stroke:none;" d="M56.3333 406.667L56.6667 407.333L56.3333 406.667z"/>
<path style="fill:#6090af; stroke:none;" d="M82 406L83 407L82 406M380 406L381 407L380 406z"/>
<path style="fill:#e69f2a; stroke:none;" d="M414 406L415 407L414 406z"/>
<path style="fill:#6090af; stroke:none;" d="M422 406L423 407L422 406M83 407L84 408L83 407M373 414L380 407L373 414z"/>
<path style="fill:#e69f2a; stroke:none;" d="M413 407L414 408L413 407z"/>
<path style="fill:#6090af; stroke:none;" d="M421 407L422 408L421 407M57 408L58 409L57 408M84 408L85 409L84 408M296 408L296 414L297 414L296 408z"/>
<path style="fill:#e69f2a; stroke:none;" d="M411 408L412 409L411 408z"/>
<path style="fill:#6090af; stroke:none;" d="M420 408L421 409L420 408z"/>
<path style="fill:#e69f2a; stroke:none;" d="M57 409L58 410L57 409z"/>
<path style="fill:#6090af; stroke:none;" d="M85.6667 409.333L86.3333 409.667L85.6667 409.333z"/>
<path style="fill:#e69f2a; stroke:none;" d="M410 409L407 413L410 409z"/>
<path style="fill:#6090af; stroke:none;" d="M419 409L420 410L419 409M57 410L58 411L57 410M87.6667 410.333L88.3333 410.667L87.6667 410.333M348.333 410.667L348.667 411.333L348.333 410.667M58 411L59 412L58 411M89 411L89 412L92 412L89 411z"/>
<path style="fill:#e69f2a; stroke:none;" d="M418 411L419 412L418 411M58 412L59 413L58 412M61 412L60 418C72.7904 414.955 87.8821 417 101 417C122.024 417 144.087 415.07 165 417.171C176.007 418.276 186.574 428.56 180.557 439.996C174.434 451.634 159.936 449 149 449L61 449L61 454C108.699 454 156.365 455 204 455C222.654 455 245.665 453.36 241.787 428C238.74 408.075 213.33 413 199 413C152.966 413 106.973 412 61 412M373 412L374 413L373 412z"/>
<path style="fill:#6090af; stroke:none;" d="M417 412L418 413L417 412M58.6667 413.333L59.3333 413.667L58.6667 413.333M348 413L349 414L348 413z"/>
<path style="fill:#e69f2a; stroke:none;" d="M372 413L373 414L372 413M406 413L407 414L406 413M59 414L60 415L59 414M250 414L250 422L251 422L250 414M296 414L297 415L296 414z"/>
<path style="fill:#6090af; stroke:none;" d="M370 414L369 417L370 414z"/>
<path style="fill:#e69f2a; stroke:none;" d="M371 414L372 415L371 414M416 414L417 415L416 414z"/>
<path style="fill:#6090af; stroke:none;" d="M59 415L60 416L59 415z"/>
<path style="fill:#e69f2a; stroke:none;" d="M405 415L406 416L405 415z"/>
<path style="fill:#6090af; stroke:none;" d="M367.333 416.667L367.667 417.333L367.333 416.667z"/>
<path style="fill:#e69f2a; stroke:none;" d="M368 416L369 417L368 416M404 416L405 417L404 416M415 416L416 417L415 416M366 417L367 418L366 417z"/>
<path style="fill:#6090af; stroke:none;" d="M60 418L60 443L61 443L60 418M364 418L365 419L364 418z"/>
<path style="fill:#e69f2a; stroke:none;" d="M365 418L362 419L362 420L365 418z"/>
<path style="fill:#6090af; stroke:none;" d="M393 418L393 419L401 419L393 418z"/>
<path style="fill:#e69f2a; stroke:none;" d="M401 418L401 419L414 419L401 418z"/>
<path style="fill:#6090af; stroke:none;" d="M295 419L295 423L296 423L295 419z"/>
<path style="fill:#e69f2a; stroke:none;" d="M351 429L352 429L361 421C353.001 417.643 344.76 420.296 351 429z"/>
<path style="fill:#bc6123; stroke:none;" d="M347 425L345 435L347 440L336 439L336 435L307 435L307 445C299.421 441.029 292.6 439.024 284 439L284 436L256 436L256 456C281.327 456 306.675 455.703 332 456.004C340.111 456.1 354.153 460.253 361.667 456.397C364.761 454.808 362.588 451.029 361.196 449.015C356.144 441.704 354.946 429.519 347 425z"/>
<path style="fill:#6090af; stroke:none;" d="M294 428L294 433L295 433L294 428z"/>
<path style="fill:#e69f2a; stroke:none;" d="M354 434L355 435L354 434M336 435L336 439L347 440L347 435L336 435M284 436L284 439L285 439L284 436M292.667 439.333L293.333 439.667L292.667 439.333M297 440L298 441L297 440M300 441L301 442L300 441M302 442L303 443L302 442M60 443L61 444L60 443M355 443L356 444L355 443M305 444L306 445L305 444M361 449L362 450L361 449M256 456L256 457L339 457L313 456L256 456M363 456L342 457L342 458L363 456z"/>
</svg>
