<?xml version="1.0" standalone="yes"?>
<svg xmlns="http://www.w3.org/2000/svg" width="500" height="500">
<path style="fill:#101518; stroke:none;" d="M0 0L0 500L500 500L500 0L0 0z"/>
<path style="fill:#edd7c8; stroke:none;" d="M214 49L214 50L248 50C248 61.5808 251.085 78.4626 245.558 89C237.111 105.104 211.29 106.574 200.638 91.9854C195.451 84.881 197.312 76.8223 195 69C191.563 69.9094 185.165 70.2282 182.603 72.7423C177.767 77.4899 180.509 88.6173 174.671 94.8148C159.337 111.093 136.662 99.9632 129 83C103.799 94.8577 116.263 144.988 145 142C144.093 135.847 148.961 128.506 155.945 132.183C164.068 136.459 158.861 151.632 165.649 158.348C171.423 164.06 181.835 161.513 189 163.139C193.554 164.172 196.736 167.542 201 169.157C209.801 172.489 225.043 159.731 229.333 170.044C231.323 174.827 226.524 178.275 227.38 183C230.087 197.95 238.1 213.761 243.424 228C244.666 231.321 252.969 244.119 252.407 246.234C245.099 273.689 201.513 279.138 195 248C189.978 247.317 191.622 243.195 196 243C200.259 227.399 207.038 212.283 212.344 197C213.96 192.346 219.092 184.034 216.589 179.148C214.108 174.304 205.445 176 201 176C192.472 176 183.26 174.968 175 177.44C169.208 179.173 164.774 183.502 159 185C159 208.13 160.296 230.971 161.91 254C162.793 266.596 162.346 283.021 167.148 294.856C168.879 299.122 174.378 298.794 178 300.569C183.133 303.084 186.413 307.656 188 313L226 313L222 291L236 311C245.675 298.3 250.066 290.345 248 274L249 274C251.442 282.476 256.645 289.847 256.871 299C257.107 308.556 250.44 316.511 255 326C268.97 321.666 278.976 317.538 282 302C289.915 306.439 291.227 290.915 290.201 286C287.706 274.05 290.744 259.293 286.4 248.004C284.167 242.2 275.92 239.453 278.746 232.015C281.361 225.136 289.025 226 295 226C293.02 221.79 286.329 218.456 285.627 214.075C284.717 208.393 292.438 205.239 288.821 198C286.335 193.024 281.22 189.795 278.352 185C271.564 173.653 265.714 160.016 260.671 147.819C257.667 140.553 238.7 134.144 248 124L248 118L252 118L253 118L265 128L262 124L264 118L267 119C277.921 105.777 302.238 112.837 307.442 93C311.061 79.2071 301.26 68.0998 291 60.4784C269.7 44.6554 238.636 38.8955 214 49z"/>
<path style="fill:#e49a24; stroke:none;" d="M254 45L255 46L254 45M63 50C63 61.6497 59.6892 79.3962 65 90C73.07 106.113 101.789 106.748 111.438 91.9606C118.506 81.1266 115 62.3945 115 50L63 50z"/>
<path style="fill:#b74a10; stroke:none;" d="M129 50C129 63.1676 126.078 80.2881 133.479 91.9599C142.452 106.11 170.373 104.518 178.08 89.9992C183.931 78.9782 181 62.0808 181 50L129 50z"/>
<path style="fill:#e49a24; stroke:none;" d="M196 50C196 62.7422 192.597 80.7544 199.97 91.9854C209.577 106.619 237.433 105.484 245.558 90C251.2 79.2472 248 61.8259 248 50L196 50z"/>
<path style="fill:#101518; stroke:none;" d="M80 67C88.7525 63.9476 88.2932 61.2476 97 67C95.7541 56.0758 82.5365 57.3708 80 67z"/>
<path style="fill:#e49a24; stroke:none;" d="M144 68L150 70C157.572 62.9123 167.806 73.8575 159.786 80.4213C155.298 84.095 149.297 79.4209 144 81C150.11 93.7847 170.384 88.1542 169.866 74C169.375 60.5813 149.847 55.8349 144 68M83 67L95 67C93.0367 60.5326 84.9633 60.5325 83 67z"/>
<path style="fill:#edd7c8; stroke:none;" d="M212 63C208.174 68.9423 220.06 84.388 227 82.6543C229.623 81.9991 236.657 75.6779 233.338 72.7515C231.03 70.7169 227.689 74.5601 225 73.7979C220.192 72.435 216.101 65.8885 212 63z"/>
<path style="fill:#b74a10; stroke:none;" d="M80 64L81 65L80 64M349 64L349 65L353 65L349 64M361 64L362 65L361 64z"/>
<path style="fill:#e49a24; stroke:none;" d="M376 115C377.339 121.133 385.296 129.486 389.432 119.945C391.337 115.552 387.898 110.286 390.068 106.375C393.255 100.63 400.228 99.1737 398.768 91.044C397.335 83.0668 390.627 89.3508 386.015 88.125C381.615 86.9552 379.578 81.7628 378 78C372.905 80.1133 369.935 79.0098 365 77L365 76L377 77C374.719 71.7143 370.736 64.357 364.001 64.4406C361.344 64.4735 359.211 66.5248 356.576 66.4097C352.521 66.2327 349.032 63.6627 346.14 68.1481C333.06 88.4338 348.537 128.444 376 115z"/>
<path style="fill:#b74a10; stroke:none;" d="M366 64L367 65L366 64M347 65L348 66L347 65M354 65L355 66L354 65M359 65L360 66L359 65M368 65L369 66L368 65M96.9807 66.858C93.0045 66.2669 79.7283 65.4045 77.0278 68.7423C73.5042 73.0974 74.9049 87.607 81.0193 88.7716C85.4474 89.615 98.09 90.754 100.972 86.5663C104.009 82.1542 103.356 67.8058 96.9807 66.858M346 66L347 67L346 66M355 66L356 67L355 66M358 66L359 67L358 66M370 66L371 67L370 66M357 67L358 68L357 67M371 67L372 68L371 67M345 68L346 69L345 68M372 68L373 69L372 68M373 70L374 71L373 70M344.333 71.6667L344.667 72.3333L344.333 71.6667M374 71L375 72L374 71z"/>
<path style="fill:#e49a24; stroke:none;" d="M181 72L182 73L181 72M86.757 74.0463C83.9935 76.2824 87.4924 80.9018 90.3966 78.9144C93.5693 76.7432 89.8276 71.5616 86.757 74.0463z"/>
<path style="fill:#b74a10; stroke:none;" d="M375 73L376 74L375 73M350.667 74.3333L351.333 74.6667L350.667 74.3333M368 74L368 75L371 75L368 74M343 75L343 78L344 78L343 75M347 75L348 76L347 75z"/>
<path style="fill:#101518; stroke:none;" d="M346 79L354 76C350.216 74.9693 347.407 74.998 346 79z"/>
<path style="fill:#b74a10; stroke:none;" d="M353 75L354 76L353 75M366 75L366 78L367 78L366 75z"/>
<path style="fill:#101518; stroke:none;" d="M366 76L366 77L376 79C374.374 74.3749 370.143 74.787 366 76z"/>
<path style="fill:#b74a10; stroke:none;" d="M374 75L375 76L374 75M376 75L377 76L376 75M345.333 77.6667L345.667 78.3333L345.333 77.6667M353 77L354 78L353 77M376 77L376 79L378 77L376 77M352 78L353 79L352 78M368 78L369 79L368 78M346 79L346 80L350 80L346 79M370 79L370 80L376 80L370 79M378 79L379 80L378 79z"/>
<path style="fill:#e49a24; stroke:none;" d="M129 81L130 84L129 81M180 81L180 85L181 85L180 81z"/>
<path style="fill:#b74a10; stroke:none;" d="M342 81L342 85L343 85L342 81M379 81L380 82L379 81M380 83L381 84L380 83M348 84L349 85L348 84z"/>
<path style="fill:#101518; stroke:none;" d="M349 84L349 90L351 84L349 84z"/>
<path style="fill:#b74a10; stroke:none;" d="M365 84L366 85L365 84z"/>
<path style="fill:#101518; stroke:none;" d="M366 84L366 90L368 84L366 84z"/>
<path style="fill:#e49a24; stroke:none;" d="M130.333 85.6667L130.667 86.3333L130.333 85.6667z"/>
<path style="fill:#b74a10; stroke:none;" d="M351 85L352 86L351 85M368 85L369 86L368 85M381 85L382 86L381 85M347.333 86.6667L347.667 87.3333L347.333 86.6667M364 86L365 87L364 86M382 86L383 87L382 86M392 86L393 87L392 86M396 86L397 87L396 86z"/>
<path style="fill:#e49a24; stroke:none;" d="M179 87L180 88L179 87z"/>
<path style="fill:#b74a10; stroke:none;" d="M383 87L384 88L383 87z"/>
<path style="fill:#e49a24; stroke:none;" d="M131.333 88.6667L131.667 89.3333L131.333 88.6667z"/>
<path style="fill:#b74a10; stroke:none;" d="M351 88L352 89L351 88M368 88L369 89L368 88M385 88L385 89L388 89L385 88M389 88L390 89L389 88M398 88L399 89L398 88z"/>
<path style="fill:#e49a24; stroke:none;" d="M178 89L179 90L178 89z"/>
<path style="fill:#b74a10; stroke:none;" d="M348 89L349 90L348 89M350 89L351 90L350 89M365 89L366 90L365 89M367 89L368 90L367 89z"/>
<path style="fill:#e49a24; stroke:none;" d="M132 90L133 91L132 90z"/>
<path style="fill:#b74a10; stroke:none;" d="M341 90L342 91L341 90M394 90L395 91L394 90M399 90L399 96L400 96L399 90z"/>
<path style="fill:#e49a24; stroke:none;" d="M177 91L178 92L177 91z"/>
<path style="fill:#b74a10; stroke:none;" d="M392 91L393 92L392 91z"/>
<path style="fill:#e49a24; stroke:none;" d="M133 92L134 93L133 92M176 92L177 93L176 92z"/>
<path style="fill:#b74a10; stroke:none;" d="M354 92L355 93L354 92M396.333 92.6667L396.667 93.3333L396.333 92.6667z"/>
<path style="fill:#e49a24; stroke:none;" d="M134 93L135 94L134 93M175 94L176 95L175 94M174 95L175 96L174 95z"/>
<path style="fill:#b74a10; stroke:none;" d="M352 95L354 98L352 95M393 95L394 96L393 95z"/>
<path style="fill:#e49a24; stroke:none;" d="M137 96L138 97L137 96M173 96L174 97L173 96M138 97L139 98L138 97M171 97L172 98L171 97z"/>
<path style="fill:#b74a10; stroke:none;" d="M392 97L391 99L392 97M398 97L399 98L398 97z"/>
<path style="fill:#e49a24; stroke:none;" d="M139.667 98.3333L140.333 98.6667L139.667 98.3333M170 98L171 99L170 98z"/>
<path style="fill:#b74a10; stroke:none;" d="M355.667 98.3333L356.333 98.6667L355.667 98.3333z"/>
<path style="fill:#e49a24; stroke:none;" d="M141 99L142 100L141 99M168 99L169 100L168 99z"/>
<path style="fill:#b74a10; stroke:none;" d="M397 99L398 100L397 99z"/>
<path style="fill:#e49a24; stroke:none;" d="M143.667 100.333L144.333 100.667L143.667 100.333M165.667 100.333L166.333 100.667L165.667 100.333z"/>
<path style="fill:#b74a10; stroke:none;" d="M357 102C361.479 107.076 367.137 106.905 369 100L357 102M396 100L397 101L396 100z"/>
<path style="fill:#e49a24; stroke:none;" d="M147 101L147 102L164 102L147 101z"/>
<path style="fill:#b74a10; stroke:none;" d="M395 101L396 102L395 101M394 102L395 103L394 102M393 103L394 104L393 103M391 104L392 105L391 104M389 105L389 111L390 111L389 105z"/>
<path style="fill:#edd7c8; stroke:none;" d="M351 112L352 113L351 112M352 113L353 114L352 113M353 114L354 115L353 114M355 115L356 116L355 115M375 115L361 122L358 167L381 165.015L392.683 165.393L397.036 153L407 119L390 115C388.922 129.293 379.786 121.562 375 115z"/>
<path style="fill:#b74a10; stroke:none;" d="M392.667 115.333L393.333 115.667L392.667 115.333z"/>
<path style="fill:#edd7c8; stroke:none;" d="M336 134C338.071 132.778 339.89 131.604 341.537 129.812C343.64 127.524 347.062 123.473 346.758 120.109C346.329 115.349 339.189 115.916 336.742 118.564C333.268 122.322 334.646 129.68 336 134z"/>
<path style="fill:#e49a24; stroke:none;" d="M396 116L397 117L396 116z"/>
<path style="fill:#b74a10; stroke:none;" d="M397.667 116.333L398.333 116.667L397.667 116.333z"/>
<path style="fill:#edd7c8; stroke:none;" d="M359 117L360 118L359 117z"/>
<path style="fill:#e49a24; stroke:none;" d="M400 117L401 118L400 117z"/>
<path style="fill:#b74a10; stroke:none;" d="M401 117L402 118L401 117z"/>
<path style="fill:#e49a24; stroke:none;" d="M248 118L248 124C237.302 131.058 255.957 143.305 261 147L262 147C270.915 137.897 281.697 125.003 264 118L265 128L253 118L252 118L248 118M403 118L404 119L403 118z"/>
<path style="fill:#b74a10; stroke:none;" d="M404 118L405 119L404 118z"/>
<path style="fill:#4489bb; stroke:none;" d="M407 119L394 166C406.351 165.956 404 185.924 404 195C412.5 187.92 406.253 172.304 405 163L406 163L421 199C411.715 201.969 402.354 204.836 393 207.576C389.526 208.593 383.236 209.295 381.032 212.51C378.906 215.611 380.295 225.476 384.228 226.682C397.636 230.792 417.938 227 432 227C437.228 227 444.364 228.244 448.96 225.258C457.559 219.67 460.801 204.468 459.065 195C455.932 177.915 446.356 161.968 438.012 147C434.258 140.267 431.052 131.838 425.621 126.263C421.08 121.602 413.325 119.324 407 119z"/>
<path style="fill:#b74a10; stroke:none;" d="M253 123L254 124L253 123z"/>
<path style="fill:#101518; stroke:none;" d="M262 123L264 125L264 123L262 123z"/>
<path style="fill:#4489bb; stroke:none;" d="M326 182L307.961 165L276 132C271.441 135.22 261.896 143.102 261.241 149C260.588 154.874 268.254 163.956 270.931 169C279.64 185.404 290.395 197.879 307 206.507C317.888 212.164 331.395 209.711 337.084 198C339.179 193.687 340.592 188.686 341.55 184C343.402 174.945 344.809 165.237 345 156L346 156L347 170L356.972 167.397L358 153L362 124L361 123C338.263 132.469 328.07 158.294 326 182z"/>
<path style="fill:#b74a10; stroke:none;" d="M255 126L257 128L255 126M251 128L256 133L251 128M247 130L251 134L247 130M266 130L266 133L267 133L266 130z"/>
<path style="fill:#e49a24; stroke:none;" d="M142 142C143.854 143.433 147.497 145.798 150 146.667C163.098 151.215 164.469 125.887 149 131.333C143.238 133.362 146.138 141.466 142 142z"/>
<path style="fill:#b74a10; stroke:none;" d="M253 135L254 136L253 135M150.836 137.042C148.582 139.121 152.124 142.6 154.303 140.357C156.476 138.12 152.969 135.075 150.836 137.042M267.333 137.667L267.667 138.333L267.333 137.667z"/>
<path style="fill:#4489bb; stroke:none;" d="M144 143C143.822 164.198 128.914 159.35 114 163.404C105.23 165.788 100.674 170 91 170L91 176C106.981 176 129.764 170.936 141 185C155.272 181.652 151 200.723 151 210C151 239.255 152.331 268.965 156 298C142.297 298 120.281 294.885 117 313L70 313C62.4392 313 54.5285 311.434 54 321L55 321C62.126 314.323 81.6207 318 91 318C107.774 318 125.305 319.476 142 317.896C147.298 317.394 151.803 314.233 157 313.329C171.797 310.753 188.173 314.018 198.826 325.09C211.652 338.42 208.416 351.631 208.015 368C207.716 380.208 211.109 389.998 196 390L197 382L185 388L179 390L179 391L248 391L248 390L238 390L239 361C242.113 361 246.972 361.821 249.397 359.397C254.661 354.132 251 332.268 251 325L252 325L252 327L253 327C250.17 314.193 248.141 313 235 313C233.947 305.874 230.752 299.439 225 295L230 313L228 306L227 306C226.091 317.916 197.222 313 188 313C186.104 302.533 176.774 298.426 167 298L162.17 260L159 185L179 176.669L214 176L214 170C204.21 170 199.857 165.81 191 163.404C183.199 161.286 171.663 164.249 165.649 157.606C162.257 153.858 161.34 147.721 160 143C153.2 147.028 150.94 145.856 144 143z"/>
<path style="fill:#101518; stroke:none;" d="M345 156L344 170L347 170L345 156z"/>
<path style="fill:#e49a24; stroke:none;" d="M148.004 158.742C134.107 164.121 142.965 185.688 156.996 180.258C170.893 174.879 162.035 153.312 148.004 158.742z"/>
<path style="fill:#101518; stroke:none;" d="M404.333 161.667L404.667 162.333L404.333 161.667z"/>
<path style="fill:#e49a24; stroke:none;" d="M185 162L186 163L185 162z"/>
<path style="fill:#101518; stroke:none;" d="M405 163L407.98 186L405 204L421 199C417.876 188.074 412.135 171.831 405 163z"/>
<path style="fill:#e49a24; stroke:none;" d="M81.0046 164.667C70.1716 166.868 74.0548 182.69 84.9807 180.502C94.836 178.529 90.5651 162.724 81.0046 164.667z"/>
<path style="fill:#b74a10; stroke:none;" d="M150.318 166.047C145.866 168.809 150.201 175.733 154.682 172.953C159.134 170.191 154.799 163.267 150.318 166.047z"/>
<path style="fill:#e49a24; stroke:none;" d="M220 182C221.994 181.416 224.15 180.944 225.95 179.861C245.835 167.894 204.652 157.695 215.314 176.87C216.427 178.872 218.437 180.366 220 182M371 165L371 166L376 166L371 165z"/>
<path style="fill:#b74a10; stroke:none;" d="M348 227L300 227C295.006 227 285.384 225.177 281.318 228.603C274.378 234.451 282.295 241.71 286 246L287 243L377 243L377 276C372.23 276 365.378 274.761 361.039 277.028C357.176 279.046 355.45 283.552 350.996 284.682C339.989 287.475 325.361 285 314 285C303.703 285 291.122 288.508 291 275L290 275L299 362L331 362L344.852 362.603L348 370C333.704 371.512 318.429 370 304 370C297.413 370 289.681 368.643 287 376C295.408 377.341 293.101 387.955 296.97 394C301.925 401.742 311.313 404.262 316 412L318 412C322.287 403.913 331.979 401.848 336.856 394C340.448 388.219 338.634 378.234 346 376C345.592 385.488 342.688 394.12 335.96 400.985C330.778 406.272 320.989 409.353 321.099 417.999C321.202 426.118 331.01 429.049 335.957 434.04C342.566 440.708 345.602 449.766 346 459C339.227 456.945 339.938 447.541 336.647 442C331.592 433.49 320.625 431.279 317 422L316 422C313.285 431.665 301.205 434.222 296.417 443C293.436 448.467 294.729 456.957 288 459C288.888 466.717 295.8 465 302 465L336 465C342.276 465 347.431 464.537 348 472L406 472L406 471C364.626 451.313 386.11 389.996 430 397.326C471.128 404.194 470.737 466.986 430 474L430 475C451.49 474.554 469.113 456.709 467.9 435C467.363 425.403 462.268 417.955 460.302 409C458.573 401.118 459.784 393.54 456 386L472 379L472 378C465.495 378.153 461.663 380.58 457 385L460.821 355L454.108 329L464 243C472.452 242.361 476.165 229.06 466.981 226.434C456.715 223.499 443.553 227 433 227L353 227L350 221L354 220L352 216L367 215L367 214L361 209C374.298 204.428 390.463 215.814 403.397 203.914C408.052 199.631 403.374 180.029 402.91 174C402.708 171.383 402.334 167.572 399.697 166.198C396.624 164.596 392.312 166.76 389 166.375C377.811 165.073 367.065 165.35 356 168.293C352.611 169.195 345.376 168.691 343.603 172.317C341.455 176.711 343.588 183.401 343.91 188C344.816 200.915 344.998 214.39 348 227z"/>
<path style="fill:#e49a24; stroke:none;" d="M386 165L387 166L386 165M361 166L361 167L364 167L361 166M387 166L387 167L392 167L387 166z"/>
<path style="fill:#b74a10; stroke:none;" d="M90.3333 169.667L90.6667 170.333L90.3333 169.667M81.6034 171.082C79.4999 172.608 81.2531 176.133 83.7215 174.829C86.6015 173.306 84.2177 169.185 81.6034 171.082M220.782 171.082C218.763 172.713 221.185 176.165 223.397 174.829C225.902 173.315 223.105 169.204 220.782 171.082z"/>
<path style="fill:#101518; stroke:none;" d="M272 172C274.849 183.692 285.823 189.752 289.5 200C291.903 206.698 285.226 207.945 284.444 213.083C283.832 217.11 293.683 224.302 297 225.5C301.11 226.984 309.122 226.684 313 224.722C315.696 223.358 319.591 220.01 315 219L315 218C325.847 218 332.614 216.65 342 211L346 214L343 178L342 178C341.772 183.223 340.383 188.081 338.655 193C329.745 218.369 301.107 208.387 287.345 192.767C281.702 186.363 278.495 177.526 272 172z"/>
<path style="fill:#b74a10; stroke:none;" d="M90.3333 175.667L90.6667 176.333L90.3333 175.667z"/>
<path style="fill:#edd7c8; stroke:none;" d="M75 177L76 178L75 177z"/>
<path style="fill:#b74a10; stroke:none;" d="M78.6667 180.333L79.3333 180.667L78.6667 180.333M85.6667 180.333L86.3333 180.667L85.6667 180.333z"/>
<path style="fill:#4489bb; stroke:none;" d="M218 180L219 181L218 180z"/>
<path style="fill:#b74a10; stroke:none;" d="M219 180L220 181L219 180M225 180L226 181L225 180M81 181L81 182L84 182L81 181z"/>
<path style="fill:#edd7c8; stroke:none;" d="M135 192C127.173 190.525 117.332 190.025 110.015 186.992C105.559 185.145 102.545 180.037 97.0903 181.333C88.2262 183.44 91.7522 194.489 94.3233 200C98.9225 209.858 109.138 216.639 120.768 212.307C125.758 210.448 121.441 202.973 125.318 199.742C129.424 196.318 133.945 198.46 135 192z"/>
<path style="fill:#101518; stroke:none;" d="M218 181L196 244L197 244C206.849 225.309 214.434 201.392 220 181L218 181z"/>
<path style="fill:#edd7c8; stroke:none;" d="M198 244C214.815 241.829 230.185 241.829 247 244L224 181C217.924 182.913 216.647 191.507 214.692 197C209.159 212.546 202.343 228.088 198 244z"/>
<path style="fill:#4489bb; stroke:none;" d="M224 181L225 182L224 181z"/>
<path style="fill:#101518; stroke:none;" d="M225 181L247 244L248 244L233.344 201L225 181z"/>
<path style="fill:#4489bb; stroke:none;" d="M226 181L227 182L226 181M87.3333 182.667L87.6667 183.333L87.3333 182.667z"/>
<path style="fill:#e49a24; stroke:none;" d="M217 182L218 183L217 182M224 182L225 183L224 182z"/>
<path style="fill:#4489bb; stroke:none;" d="M77 183L78 184L77 183M217 183L218 184L217 183M219 183L220 184L219 183z"/>
<path style="fill:#e49a24; stroke:none;" d="M227 183L228 184L227 183z"/>
<path style="fill:#4489bb; stroke:none;" d="M225 184L226 185L225 184M227 184L228 185L227 184z"/>
<path style="fill:#e49a24; stroke:none;" d="M216 185L217 186L216 185z"/>
<path style="fill:#4489bb; stroke:none;" d="M218.333 185.667L218.667 186.333L218.333 185.667M216 186L217 187L216 186M226.333 186.667L226.667 187.333L226.333 186.667z"/>
<path style="fill:#e49a24; stroke:none;" d="M228 186L229 187L228 186z"/>
<path style="fill:#4489bb; stroke:none;" d="M89.3333 187.667L89.6667 188.333L89.3333 187.667M228 187L229 188L228 187M215.333 188.667L215.667 189.333L215.333 188.667M217.333 188.667L217.667 189.333L217.333 188.667M227.333 189.667L227.667 190.333L227.333 189.667M229.333 189.667L229.667 190.333L229.333 189.667M90.3333 190.667L90.6667 191.333L90.3333 190.667M214 191L215 192L214 191M216 191L217 192L216 191M91 192L91 195L92 195L91 192z"/>
<path style="fill:#e49a24; stroke:none;" d="M216 192L217 193L216 192z"/>
<path style="fill:#4489bb; stroke:none;" d="M228 192L229 193L228 192M230 192L231 193L230 192z"/>
<path style="fill:#e49a24; stroke:none;" d="M213 193L214 194L213 193M228 193L229 194L228 193z"/>
<path style="fill:#101518; stroke:none;" d="M288 193L290 195L288 193z"/>
<path style="fill:#4489bb; stroke:none;" d="M213 194L214 195L213 194M215 194L216 195L215 194z"/>
<path style="fill:#e49a24; stroke:none;" d="M231 194L232 195L231 194z"/>
<path style="fill:#4489bb; stroke:none;" d="M92 195L92 198L93 198L92 195M229 195L230 196L229 195M231 195L232 196L231 195z"/>
<path style="fill:#e49a24; stroke:none;" d="M212 196L213 197L212 196z"/>
<path style="fill:#4489bb; stroke:none;" d="M214.333 196.667L214.667 197.333L214.333 196.667M212 197L213 198L212 197M230.333 197.667L230.667 198.333L230.333 197.667z"/>
<path style="fill:#e49a24; stroke:none;" d="M232 197L233 198L232 197z"/>
<path style="fill:#4489bb; stroke:none;" d="M290 197L291 198L290 197M93 198L94 202L95 202L93 198M232 198L233 199L232 198M211.333 199.667L211.667 200.333L211.333 199.667M213.333 199.667L213.667 200.333L213.333 199.667M231.333 200.667L231.667 201.333L231.333 200.667M233.333 200.667L233.667 201.333L233.333 200.667M95 202L95 206L96 206L95 202M210 202L211 203L210 202M212 202L213 203L212 202z"/>
<path style="fill:#e49a24; stroke:none;" d="M212 203L213 204L212 203z"/>
<path style="fill:#4489bb; stroke:none;" d="M232 203L233 204L232 203M234.333 203.667L234.667 204.333L234.333 203.667z"/>
<path style="fill:#e49a24; stroke:none;" d="M232 204L233 205L232 204z"/>
<path style="fill:#4489bb; stroke:none;" d="M97 205L98 206L97 205M209 205L210 206L209 205M211 205L212 206L211 205z"/>
<path style="fill:#e49a24; stroke:none;" d="M211 206L212 207L211 206z"/>
<path style="fill:#4489bb; stroke:none;" d="M233 206L234 207L233 206M235 206L236 207L235 206z"/>
<path style="fill:#e49a24; stroke:none;" d="M98 207L99 208L98 207M208 207L209 208L208 207M233 207L234 208L233 207M361 209L367 214L367 215L352 216L354 220L350 221L353 227L382 227C379.85 215.46 376.652 201.597 361 209z"/>
<path style="fill:#4489bb; stroke:none;" d="M208 208L209 209L208 208M210 208L211 209L210 208z"/>
<path style="fill:#e49a24; stroke:none;" d="M236 208L237 209L236 208z"/>
<path style="fill:#4489bb; stroke:none;" d="M97 209L98 210L97 209M234 209L235 210L234 209M236 209L237 210L236 209M207.333 210.667L207.667 211.333L207.333 210.667M209.333 210.667L209.667 211.333L209.333 210.667M342 210L343 211L342 210M235.333 211.667L235.667 212.333L235.333 211.667M237.333 211.667L237.667 212.333L237.333 211.667M338 214L342 211L338 214M206.333 213.667L206.667 214.333L206.333 213.667M208 213L209 214L208 213z"/>
<path style="fill:#edd7c8; stroke:none;" d="M311 225L311 226L347 227L344.411 214.032L334 215.742L311 225z"/>
<path style="fill:#e49a24; stroke:none;" d="M208 214L209 215L208 214z"/>
<path style="fill:#4489bb; stroke:none;" d="M236 214L237 215L236 214M238.333 214.667L238.667 215.333L238.333 214.667M336 214L337 215L336 214z"/>
<path style="fill:#e49a24; stroke:none;" d="M346 214L346 219L347 219L346 214M236 215L237 216L236 215z"/>
<path style="fill:#4489bb; stroke:none;" d="M334 215L335 216L334 215M205 216L206 217L205 216M207 216L208 217L207 216M332 216L333 217L332 216z"/>
<path style="fill:#e49a24; stroke:none;" d="M207 217L208 218L207 217z"/>
<path style="fill:#4489bb; stroke:none;" d="M237 217L238 218L237 217M239 217L240 218L239 217M329.667 217.333L330.333 217.667L329.667 217.333z"/>
<path style="fill:#e49a24; stroke:none;" d="M204 218L205 219L204 218M237 218L238 219L237 218z"/>
<path style="fill:#4489bb; stroke:none;" d="M315 218L315 219L327 219L315 218M204 219L205 220L204 219M206 219L207 220L206 219z"/>
<path style="fill:#e49a24; stroke:none;" d="M240 219L241 220L240 219M318 219L319 220L318 219z"/>
<path style="fill:#4489bb; stroke:none;" d="M238 220L239 221L238 220M240 220L241 221L240 220z"/>
<path style="fill:#b74a10; stroke:none;" d="M357 220L358 221L357 220z"/>
<path style="fill:#4489bb; stroke:none;" d="M203.333 221.667L203.667 222.333L203.333 221.667M205.333 221.667L205.667 222.333L205.333 221.667z"/>
<path style="fill:#b74a10; stroke:none;" d="M362 221L362 222L366 222L362 221z"/>
<path style="fill:#4489bb; stroke:none;" d="M239.333 222.667L239.667 223.333L239.333 222.667M241.333 222.667L241.667 223.333L241.333 222.667M202.333 224.667L202.667 225.333L202.333 224.667M204 224L205 225L204 224z"/>
<path style="fill:#e49a24; stroke:none;" d="M204 225L205 226L204 225z"/>
<path style="fill:#4489bb; stroke:none;" d="M240 225L241 226L240 225M242.333 225.667L242.667 226.333L242.333 225.667z"/>
<path style="fill:#e49a24; stroke:none;" d="M283 226L283 227L313 227L283 226M347.333 225.667L347.667 226.333L347.333 225.667M240 226L241 227L240 226z"/>
<path style="fill:#4489bb; stroke:none;" d="M201 227L202 228L201 227M203 227L204 228L203 227z"/>
<path style="fill:#e49a24; stroke:none;" d="M281 227L282 228L281 227M203 228L204 229L203 228z"/>
<path style="fill:#4489bb; stroke:none;" d="M241 228L242 229L241 228M243 228L244 229L243 228z"/>
<path style="fill:#e49a24; stroke:none;" d="M280 228L281 229L280 228M200 229L201 230L200 229M241 229L242 230L241 229M279 229L280 230L279 229z"/>
<path style="fill:#4489bb; stroke:none;" d="M200 230L201 231L200 230M202 230L203 231L202 230z"/>
<path style="fill:#e49a24; stroke:none;" d="M244 230L245 231L244 230z"/>
<path style="fill:#4489bb; stroke:none;" d="M242 231L243 232L242 231M244 231L245 232L244 231z"/>
<path style="fill:#e49a24; stroke:none;" d="M278 231L278 239L279 239L278 231M199 232L200 233L199 232z"/>
<path style="fill:#4489bb; stroke:none;" d="M201.333 232.667L201.667 233.333L201.333 232.667M199 233L200 234L199 233M243.333 233.667L243.667 234.333L243.333 233.667M245.333 233.667L245.667 234.333L245.333 233.667M198.333 235.667L198.667 236.333L198.333 235.667M200 235L201 236L200 235z"/>
<path style="fill:#e49a24; stroke:none;" d="M200 236L201 237L200 236z"/>
<path style="fill:#4489bb; stroke:none;" d="M244.333 236.667L244.667 237.333L244.333 236.667M246.333 236.667L246.667 237.333L246.333 236.667M197 238L198 239L197 238M199 238L200 239L199 238M58 242C57.1313 245.647 55.2395 249.208 56.0988 253.001C62.1266 279.608 114.182 273.52 108 243L99 243L99 242L107 242L106 239L74 241.039L58 242M108 239L108 242L109 242L108 239z"/>
<path style="fill:#e49a24; stroke:none;" d="M109.667 239.333L110.333 239.667L109.667 239.333z"/>
<path style="fill:#edd7c8; stroke:none;" d="M109 242C112.884 242.956 114.875 246.812 110 248C104.334 275.089 78.8598 269.817 60 262C51.8637 276.297 38.6155 298.393 45.3133 316C48.282 323.804 56.3371 328.246 58.4815 336.996C61.1046 347.7 54.1942 358.327 62 368C72.2747 353.719 89.9861 353.047 90 332L91 332L92.6952 356L83.4421 370L81 386L143 386C139.446 381.353 134.607 378.056 131.468 373C117.768 350.937 129.003 335.359 143 318L78 318C71.8427 318 58.9009 315.479 55 321L54 321C54.6979 311.827 62.7721 313 70 313L117 313C120.593 300.904 130.976 303.946 137.012 296.436C139.54 293.289 139.47 286.858 140 283C141.505 272.04 144.01 260.121 143.566 249.044C143.257 241.326 113.369 235.817 109 242z"/>
<path style="fill:#e49a24; stroke:none;" d="M199 239L200 240L199 239z"/>
<path style="fill:#4489bb; stroke:none;" d="M245 239L246 240L245 239M247 239L248 240L247 239z"/>
<path style="fill:#e49a24; stroke:none;" d="M196 240L197 241L196 240M245 240L246 241L245 240M279 240L280 241L279 240z"/>
<path style="fill:#4489bb; stroke:none;" d="M56.3333 241.667L56.6667 242.333L56.3333 241.667z"/>
<path style="fill:#e49a24; stroke:none;" d="M103 241L104 242L103 241z"/>
<path style="fill:#edd7c8; stroke:none;" d="M99 242L99 243L107 244L106 241L99 242z"/>
<path style="fill:#4489bb; stroke:none;" d="M196 241L197 242L196 241M198 241L199 242L198 241z"/>
<path style="fill:#e49a24; stroke:none;" d="M248 241C247.129 252.4 257.532 244.968 248 241M280 241L281 242L280 241M52.6073 243.086C50.145 244.887 52.8098 249.312 55.5417 247.825C58.7008 246.105 55.5028 240.967 52.6073 243.086M109.742 243.083C107.356 244.874 109.885 249.163 112.397 247.173C114.711 245.339 112.294 241.168 109.742 243.083M197 247C193.375 237.175 187.291 250.68 197 247z"/>
<path style="fill:#4489bb; stroke:none;" d="M197 243C191.659 269.372 226.781 276.726 243.942 262.319C254.349 253.583 247.421 242.89 236 242.09C231.364 241.765 226.645 242 222 242C213.834 242 204.982 243.87 197 243M246 242L247 243L246 242M248 242L249 243L248 242z"/>
<path style="fill:#e49a24; stroke:none;" d="M282 242L285 245L282 242z"/>
<path style="fill:#b74a10; stroke:none;" d="M108 243L109 244L108 243z"/>
<path style="fill:#101518; stroke:none;" d="M287 243L290 274L289 274L289 270L288 270L289 281L290 281L290 275L291 275C291.04 288.788 303.215 285 314 285C325.634 285 340.724 287.576 351.985 284.682C356.361 283.557 358.157 279.003 362.015 277.028C366.173 274.898 372.45 276 377 276L377 243L287 243z"/>
<path style="fill:#4489bb; stroke:none;" d="M144 244L143 246L145 246L144 244z"/>
<path style="fill:#b74a10; stroke:none;" d="M196 244L197 245L196 244z"/>
<path style="fill:#e49a24; stroke:none;" d="M285 245L286 246L285 245M286 246L287 247L286 246z"/>
<path style="fill:#b74a10; stroke:none;" d="M287 248L287 253L288 253L287 248z"/>
<path style="fill:#e49a24; stroke:none;" d="M143.333 250.667L143.667 251.333L143.333 250.667M161.333 250.667L161.667 251.333L161.333 250.667z"/>
<path style="fill:#4489bb; stroke:none;" d="M143 252L143 258L144 258L143 252z"/>
<path style="fill:#e49a24; stroke:none;" d="M249.333 253.667L249.667 254.333L249.333 253.667M287.333 253.667L287.667 254.333L287.333 253.667M248 255L249 256L248 255z"/>
<path style="fill:#b74a10; stroke:none;" d="M288 257L288 261L289 261L288 257z"/>
<path style="fill:#e49a24; stroke:none;" d="M200 261L201 262L200 261M288 261L288 265L289 265L288 261M462 261L464 263L462 261M142 262L143 263L142 262M162 262L163 263L162 262z"/>
<path style="fill:#edd7c8; stroke:none;" d="M462 262C461.316 277.93 458.666 294.168 456.715 310C455.911 316.527 453.119 325.537 454.603 332C456.892 341.96 468.323 353.554 478 356C481.64 348.436 480.246 338.138 479.285 330C477.279 312.994 476.443 296.476 470.999 280C468.915 273.692 467.165 266.439 462 262z"/>
<path style="fill:#e49a24; stroke:none;" d="M102 263L103 264L102 263z"/>
<path style="fill:#4489bb; stroke:none;" d="M142 263L142 268L143 268L142 263z"/>
<path style="fill:#b74a10; stroke:none;" d="M288 265L289 274L290 274L288 265z"/>
<path style="fill:#e49a24; stroke:none;" d="M461 265L461 268L462 268L461 265M209 267L210 268L209 267M287 268L288 281L289 281L287 268M141 271L142 272L141 271z"/>
<path style="fill:#4489bb; stroke:none;" d="M141 272L141 276L142 276L141 272z"/>
<path style="fill:#e49a24; stroke:none;" d="M247.333 272.667L247.667 273.333L247.333 272.667M248 274C249.156 288.654 248.295 298.626 245 313L246 313C249.451 302.389 255.267 284.209 248 274M460 274L460 277L461 277L460 274z"/>
<path style="fill:#4489bb; stroke:none;" d="M249 277L250 278L249 277z"/>
<path style="fill:#b74a10; stroke:none;" d="M288 277L289 278L288 277z"/>
<path style="fill:#e49a24; stroke:none;" d="M377 277L377 287C391.682 287.002 391.617 298.21 403.004 303.972C406.481 305.732 411.218 305 415 305C414.37 319.675 409.141 336.59 399.671 347.999C394.067 354.752 380.887 360.223 377.603 368.174C376.197 371.58 377 376.376 377 380C409.636 359.856 426 332.511 426 294L408.015 292.972L392.961 278.028L377 277z"/>
<path style="fill:#4489bb; stroke:none;" d="M250 278L251 279L250 278z"/>
<path style="fill:#e49a24; stroke:none;" d="M140 279L141 280L140 279M164 279L165 280L164 279z"/>
<path style="fill:#b74a10; stroke:none;" d="M250 279C251.551 291.272 249.752 301.265 246 313L251 318L252 318C254.311 304.571 260.112 291.25 250 279z"/>
<path style="fill:#4489bb; stroke:none;" d="M140 280L140 284L141 284L140 280M251 280L252 281L251 280M250 282L250 285L251 285L250 282z"/>
<path style="fill:#e49a24; stroke:none;" d="M252 282L253 283L252 282M289.333 282.667L289.667 283.333L289.333 282.667M459 283L459 286L460 286L459 283M253 284L254 285L253 284z"/>
<path style="fill:#4489bb; stroke:none;" d="M249.333 285.667L249.667 286.333L249.333 285.667z"/>
<path style="fill:#e49a24; stroke:none;" d="M290.333 285.667L290.667 286.333L290.333 285.667M139 286L140 287L139 286M165 286L166 287L165 286z"/>
<path style="fill:#4489bb; stroke:none;" d="M139 287L139 290L140 290L139 287z"/>
<path style="fill:#b74a10; stroke:none;" d="M249 287L235 313L245 313C246.756 305.409 252.124 294.66 249 287z"/>
<path style="fill:#e49a24; stroke:none;" d="M254 287L255 288L254 287M248.333 288.667L248.667 289.333L248.333 288.667M255.333 290.667L255.667 291.333L255.333 290.667M290 290L290 297L291 297L290 290M458 290L458 294L459 294L458 290M222 291L225 296L222 291M138 292L139 293L138 292z"/>
<path style="fill:#4489bb; stroke:none;" d="M138.333 293.667L138.667 294.333L138.333 293.667z"/>
<path style="fill:#e49a24; stroke:none;" d="M247.333 293.667L247.667 294.333L247.333 293.667z"/>
<path style="fill:#4489bb; stroke:none;" d="M249.333 293.667L249.667 294.333L249.333 293.667z"/>
<path style="fill:#101518; stroke:none;" d="M291 293C289.427 302.904 282.4 307.811 284.148 318.999C285.213 325.81 294.898 328.908 291.477 336.907C288.93 342.863 269.031 359.73 267 347L266 347L259 369L262 368L257 376L258 371L251 375L251 359L239 361L238 390C248.713 390 259.34 390.948 270 390.999C273.878 391.018 280.357 389.779 283.486 392.603C287.535 396.258 285.059 403.331 285.004 408C284.857 420.392 287.027 432.678 288 445C291.354 442.81 292.778 439.057 295.329 436.004C298.189 432.58 304.715 429.673 306.357 425.621C311.192 413.691 299.313 404.927 293.637 397C288.387 389.669 286.396 379.771 288 371L285 362L299 362L300 361C294.956 339.823 299.6 312.936 291 293z"/>
<path style="fill:#e49a24; stroke:none;" d="M226 295L227 296L226 295z"/>
<path style="fill:#4489bb; stroke:none;" d="M250.333 295.667L250.667 296.333L250.333 295.667z"/>
<path style="fill:#e49a24; stroke:none;" d="M256 295L256 304L257 304L256 295M225 296L226 312L227 312L227 306L228 306L230 313L225 296M227 296L228 297L227 296M137 297L138 298L137 297M167 297L168 298L167 297M228 297L229 298L228 297M246 297L247 298L246 297M289.333 298.667L289.667 299.333L289.333 298.667M229 299L230 300L229 299M245 299L246 300L245 299M457 299L457 303L458 303L457 299M230 300L231 301L230 300z"/>
<path style="fill:#4489bb; stroke:none;" d="M248 300L249 301L248 300z"/>
<path style="fill:#e49a24; stroke:none;" d="M288 300L289 301L288 300M180 301L181 302L180 301M244 301L245 302L244 301z"/>
<path style="fill:#4489bb; stroke:none;" d="M249 301L250 302L249 301M226.333 302.667L226.667 303.333L226.333 302.667z"/>
<path style="fill:#e49a24; stroke:none;" d="M231 302L232 303L231 302M243 302L244 303L243 302M282 302L275 317L277 316L277 317C266.36 331.109 258.72 341.205 255 359L256 359C259.084 351.48 260.401 341.717 264.854 335C270.522 326.451 279.09 320.713 281 310L282 310L279 327C286.446 321.328 283.054 312.172 285 304L282 302M359 311C366.308 316.481 367.82 315.683 376 313L377 302C369.505 302.968 363.589 304.643 359 311z"/>
<path style="fill:#edd7c8; stroke:none;" d="M377 302L376 313C393.861 319.09 376.001 332.12 376 343C391.249 342.675 405.236 326.837 395.297 312.004C390.748 305.215 384.348 303.811 377 302z"/>
<path style="fill:#e49a24; stroke:none;" d="M378 302L378 303L382 303L378 302M232 303L233 304L232 303M242 303L243 304L242 303M285 303L286 304L285 303M384 303L385 304L384 303M241 304L242 305L241 304M387 304L388 305L387 304M233.333 305.667L233.667 306.333L233.333 305.667M240 305L241 306L240 305M388 305L389 306L388 305M239 306L240 307L239 306z"/>
<path style="fill:#4489bb; stroke:none;" d="M255 306L256 307L255 306z"/>
<path style="fill:#e49a24; stroke:none;" d="M390 306L391 307L390 306M238 307L239 308L238 307z"/>
<path style="fill:#4489bb; stroke:none;" d="M246 307L247 308L246 307z"/>
<path style="fill:#e49a24; stroke:none;" d="M255 307L256 308L255 307M391 307L392 308L391 307M234.333 308.667L234.667 309.333L234.333 308.667M237 308L238 309L237 308z"/>
<path style="fill:#4489bb; stroke:none;" d="M247 308L248 309L247 308z"/>
<path style="fill:#e49a24; stroke:none;" d="M392 308L393 309L392 308M456 308L456 312L457 312L456 308z"/>
<path style="fill:#4489bb; stroke:none;" d="M254 309L255 310L254 309z"/>
<path style="fill:#e49a24; stroke:none;" d="M393 309L394 310L393 309z"/>
<path style="fill:#4489bb; stroke:none;" d="M236 310L237 311L236 310M245 310L246 311L245 310z"/>
<path style="fill:#e49a24; stroke:none;" d="M254 310L255 311L254 310z"/>
<path style="fill:#4489bb; stroke:none;" d="M281 310C278.392 320.702 269.324 326.015 264.083 335C260.251 341.569 258.713 350.837 255.861 358C254.268 362.003 247.914 373.696 254 375L254 374L252 373C264.244 367.017 261.831 351.369 267.439 340.997C270.757 334.86 277.25 331.717 279.881 325C281.675 320.419 282.945 314.637 281 310z"/>
<path style="fill:#e49a24; stroke:none;" d="M394 310L395 311L394 310M235 311L236 312L235 311z"/>
<path style="fill:#4489bb; stroke:none;" d="M246 311L247 312L246 311z"/>
<path style="fill:#e49a24; stroke:none;" d="M253 312L254 313L253 312M40 313L44 319L47 319L40 313M179 391L179 390L176 390L176 389C182.095 389 187.681 384.319 192 380C205.263 366.737 207.222 342.962 196 328C192.225 322.966 177.48 315.081 178 313C165.54 314.33 154.407 311.369 143 318.559C119.708 333.241 118.895 369.32 142 384.591C153.787 392.382 165.777 390.229 179 391z"/>
<path style="fill:#b74a10; stroke:none;" d="M173 313L173 314L176 314L173 313M177 314C184.641 320.337 192.863 323.862 198.12 333C209.991 353.631 199.297 382.276 176 389C185.644 392.932 198.671 381.373 203.452 374C216.391 354.046 206.79 311.425 177 314z"/>
<path style="fill:#e49a24; stroke:none;" d="M377.667 313.333L378.333 313.667L377.667 313.333M396 313L397 314L396 313z"/>
<path style="fill:#b74a10; stroke:none;" d="M152 314L153 315L152 314z"/>
<path style="fill:#4489bb; stroke:none;" d="M252 314L253 315L252 314z"/>
<path style="fill:#e49a24; stroke:none;" d="M253 314L253 331L254 331L258 325L255 326L253 314M380 314L381 315L380 314M54 315L55 316L54 315z"/>
<path style="fill:#4489bb; stroke:none;" d="M277 315L278 316L277 315z"/>
<path style="fill:#b74a10; stroke:none;" d="M42 316L43 317L42 316z"/>
<path style="fill:#4489bb; stroke:none;" d="M276 316L255.603 328.105L256 353L257 353C259.328 345.842 260.433 338.127 265.043 332.004C268.38 327.572 276.793 321.945 276 316z"/>
<path style="fill:#e49a24; stroke:none;" d="M397 316L398 317L397 316M455 316L455 320L456 320L455 316z"/>
<path style="fill:#b74a10; stroke:none;" d="M43.3333 317.667L43.6667 318.333L43.3333 317.667z"/>
<path style="fill:#4489bb; stroke:none;" d="M44 317L45 318L44 317z"/>
<path style="fill:#e49a24; stroke:none;" d="M383 317L384 318L383 317z"/>
<path style="fill:#b74a10; stroke:none;" d="M44 321L45 321L46 319L50.4051 337L50.0154 360L63 405C81.4374 404.78 65.4278 377.646 64 369C53.2191 362.881 59.4847 350.377 58.9059 341C58.3212 331.528 52.385 324.439 46 318L44 321z"/>
<path style="fill:#4489bb; stroke:none;" d="M45 319L46 320L45 319M47 319L48 320L47 319z"/>
<path style="fill:#e49a24; stroke:none;" d="M384 319L384 326L385 326L384 319M45 320L46 334L47 334L47 327L48 327L48.6698 360L61 405C51.912 404.702 50.5428 395.49 45.9568 389C42.0189 383.427 36.091 379.276 33.189 373C27.1067 359.846 28.9803 345.772 14 338L25.8951 354L32.5332 376L52 405L33 405L39 444L79 421L81 406L80 405L62 405C62 386.68 51.74 374.066 49.3017 357C47.5231 344.551 53.9325 331.067 45 320M48 320L49 321L48 320M271 320L272 321L271 320M398 320L398 325L399 325L398 320z"/>
<path style="fill:#4489bb; stroke:none;" d="M46 321L47 322L46 321z"/>
<path style="fill:#e49a24; stroke:none;" d="M49 321L50 322L49 321M263 322L263 323L271 322L263 322M50 322L51 323L50 322z"/>
<path style="fill:#b74a10; stroke:none;" d="M161 322.443C121.25 328.23 130.554 387.316 170 380.853C206.065 374.945 196.825 317.228 161 322.443z"/>
<path style="fill:#edd7c8; stroke:none;" d="M284 322C281.058 325.083 278.441 328.355 275.823 331.715C273.738 334.389 273.034 336.811 272.066 340.001C271.174 342.944 267.198 348.353 269.273 351.382C272.027 355.4 278.855 349.164 281 347.41C290.913 339.301 297.432 330.916 284 322z"/>
<path style="fill:#4489bb; stroke:none;" d="M47 323L48 324L47 323z"/>
<path style="fill:#e49a24; stroke:none;" d="M51 323L52 324L51 323M260.667 323.333L261.333 323.667L260.667 323.333z"/>
<path style="fill:#4489bb; stroke:none;" d="M45 324L45 327C47.0059 325.873 47.0059 325.127 45 324z"/>
<path style="fill:#e49a24; stroke:none;" d="M259 324L260 325L259 324z"/>
<path style="fill:#b74a10; stroke:none;" d="M45 325L46 326L45 325M251 325L251 370L252 370C257.371 356.054 257.94 338.611 251 325z"/>
<path style="fill:#e49a24; stroke:none;" d="M454 325L454 329L455 329L454 325z"/>
<path style="fill:#4489bb; stroke:none;" d="M48 326L49 327L48 326M53 326L54 327L53 326z"/>
<path style="fill:#b74a10; stroke:none;" d="M45 327L46 328L45 327M47 327C46.9605 338.525 38.5019 343.932 36.179 354C35.2429 358.058 37.3726 364.966 38.3789 369C41.8762 383.018 58.4097 388.132 60 404L61 404L48.3009 358L47 327z"/>
<path style="fill:#e49a24; stroke:none;" d="M54 327L55 328L54 327z"/>
<path style="fill:#b74a10; stroke:none;" d="M257 327L258 328L257 327z"/>
<path style="fill:#e49a24; stroke:none;" d="M383 327L384 328L383 327z"/>
<path style="fill:#4489bb; stroke:none;" d="M45 328L45 332L46 332L45 328z"/>
<path style="fill:#e49a24; stroke:none;" d="M278 328L279 329L278 328M359 335L359 336C364.117 340.318 369.271 342.693 376 343L377 332C368.179 331.025 366.342 327.841 359 335M397.333 328.667L397.667 329.333L397.333 328.667z"/>
<path style="fill:#4489bb; stroke:none;" d="M49 329L50 330L49 329z"/>
<path style="fill:#e49a24; stroke:none;" d="M55 329L56 330L55 329z"/>
<path style="fill:#edd7c8; stroke:none;" d="M253 329L254 330L253 329z"/>
<path style="fill:#e49a24; stroke:none;" d="M277 329L278 330L277 329M382 329L383 330L382 329z"/>
<path style="fill:#4489bb; stroke:none;" d="M48 330L49 331L48 330z"/>
<path style="fill:#e49a24; stroke:none;" d="M381 330L382 331L381 330M56 331L57 332L56 331M276 331L277 332L276 331M379 331L380 332L379 331M396 331L397 332L396 331z"/>
<path style="fill:#b74a10; stroke:none;" d="M45.3333 332.667L45.6667 333.333L45.3333 332.667z"/>
<path style="fill:#e49a24; stroke:none;" d="M90 332L89 345L86 346L86 347L88 346L88 347L75.5293 367L71 395L72 395C73.7671 386.434 73.6237 375.872 77.3272 368C82.2255 357.589 96.4739 344.887 90 332M275 332L276 333L275 332M57 333L58 334L57 333M292.333 333.667L292.667 334.333L292.333 333.667M395 333L396 334L395 333M454 333L456 336L454 333z"/>
<path style="fill:#4489bb; stroke:none;" d="M45 334L45 336L47 336L47 334L45 334z"/>
<path style="fill:#e49a24; stroke:none;" d="M160 334L160 338L153 340L155 346L165 344L165 347C159.183 347.476 148.508 350.708 153.18 358.787C155.174 362.235 158.739 362.966 160 367L165 367L165 363L174 361L172 355L160 357C164.071 352.723 178.03 351.258 172.127 342.133C169.907 338.701 166.296 338.119 165 334L160 334M272 334L269 337L268 353L269 353L272 334z"/>
<path style="fill:#4489bb; stroke:none;" d="M50 336L50 340L51 340L50 336z"/>
<path style="fill:#e49a24; stroke:none;" d="M58 336L59 337L58 336M393 336L394 337L393 336M456 336L460 341L456 336z"/>
<path style="fill:#4489bb; stroke:none;" d="M58 337L59 338L58 337M91 337C90.416 350.395 80.9554 357.309 76.4684 369C72.4029 379.592 72.1267 393.704 70 405C77.9717 404.735 79.0725 397.882 80 391L156 391L156 390L81 390C80.7605 384.335 79.7753 378.457 82.0085 373C86.9943 360.818 98.8906 351.842 91 337M271 337L272 338L271 337z"/>
<path style="fill:#e49a24; stroke:none;" d="M392 337L393 338L392 337M453 337L453 343L454 343L453 337z"/>
<path style="fill:#4489bb; stroke:none;" d="M15 338L16 339L15 338z"/>
<path style="fill:#b74a10; stroke:none;" d="M268 338L264 347L264 348L265 350L266 350L270 338L268 338z"/>
<path style="fill:#101518; stroke:none;" d="M270 338L267 346L270 338z"/>
<path style="fill:#4489bb; stroke:none;" d="M14 339L15 340L14 339z"/>
<path style="fill:#e49a24; stroke:none;" d="M92.3333 339.667L92.6667 340.333L92.3333 339.667M389 339L390 340L389 339z"/>
<path style="fill:#4489bb; stroke:none;" d="M18 340L19 341L18 340z"/>
<path style="fill:#e49a24; stroke:none;" d="M387 340L388 341L387 340z"/>
<path style="fill:#101518; stroke:none;" d="M458 340L459 341L458 340z"/>
<path style="fill:#b74a10; stroke:none;" d="M19 341L19 342L35 353C31.1253 347.072 25.8243 342.97 19 341z"/>
<path style="fill:#e49a24; stroke:none;" d="M385 341L386 342L385 341z"/>
<path style="fill:#4489bb; stroke:none;" d="M454 341L454 350L455 350L454 341M458 341L459 342L458 341M18 342L19 343L18 342M20 342L21 343L20 342z"/>
<path style="fill:#e49a24; stroke:none;" d="M59 342L60 343L59 342M382.667 342.333L383.333 342.667L382.667 342.333M460 342L461 343L460 342z"/>
<path style="fill:#4489bb; stroke:none;" d="M19 343L20 344L19 343M21 343C27.4382 353.442 28.2008 364.567 33.6736 375C36.6951 380.76 42.2286 384.724 45.9568 390C50.717 396.736 51.6436 404.889 61 405C57.1824 390.4 47.6646 385.124 40.483 373C33.5121 361.231 37.4989 348.268 21 343z"/>
<path style="fill:#e49a24; stroke:none;" d="M93 343L93 353L94 353L93 343z"/>
<path style="fill:#4489bb; stroke:none;" d="M88 344L89 345L88 344z"/>
<path style="fill:#b74a10; stroke:none;" d="M264 345L265 346L264 345z"/>
<path style="fill:#4489bb; stroke:none;" d="M462 345L463 346L462 345M21 346L22 347L21 346M87 346L61 368L61 369L64 370L71 390L72 390C72.6235 382.1 72.5853 373.09 76.5293 366C79.7493 360.211 88.416 353.144 87 346z"/>
<path style="fill:#e49a24; stroke:none;" d="M265 346L266 347L265 346z"/>
<path style="fill:#edd7c8; stroke:none;" d="M267 346L268 347L267 346z"/>
<path style="fill:#e49a24; stroke:none;" d="M463 346L464 347L463 346z"/>
<path style="fill:#4489bb; stroke:none;" d="M48.3333 347.667L48.6667 348.333L48.3333 347.667M58 347L59 348L58 347M22 348C28.4427 365.285 13.3214 391.062 40 398C40.5954 404.781 46.4269 404.996 52 405C49.6351 391.733 37.6758 385.245 31.9992 374C27.8014 365.685 29.4354 354.493 22 348z"/>
<path style="fill:#e49a24; stroke:none;" d="M58 348L59 349L58 348M85 348L86 349L85 348M453 348L450 366L451 366L453 348z"/>
<path style="fill:#b74a10; stroke:none;" d="M22 349L23 350L22 349z"/>
<path style="fill:#4489bb; stroke:none;" d="M49.3333 349.667L49.6667 350.333L49.3333 349.667z"/>
<path style="fill:#b74a10; stroke:none;" d="M264 350L264 354L265 354L264 350M23.3333 351.667L23.6667 352.333L23.3333 351.667z"/>
<path style="fill:#4489bb; stroke:none;" d="M57 351L58 352L57 351z"/>
<path style="fill:#e49a24; stroke:none;" d="M83 351L84 352L83 351M57 352L57 355L58 355L57 352M82 352L83 353L82 352M81 353L82 354L81 353z"/>
<path style="fill:#b74a10; stroke:none;" d="M92 353L93 354L92 353M263 354L262 361L263 361L263 354z"/>
<path style="fill:#4489bb; stroke:none;" d="M452 354L453 355L452 354z"/>
<path style="fill:#b74a10; stroke:none;" d="M24 355L24 358L25 358L24 355z"/>
<path style="fill:#e49a24; stroke:none;" d="M78 355L79 356L78 355z"/>
<path style="fill:#b74a10; stroke:none;" d="M81 355L82 356L81 355z"/>
<path style="fill:#4489bb; stroke:none;" d="M453 355L454 356L453 355z"/>
<path style="fill:#e49a24; stroke:none;" d="M57 356L57 359L58 359L57 356M75 356L76 357L75 356M92.3333 356.667L92.6667 357.333L92.3333 356.667z"/>
<path style="fill:#4489bb; stroke:none;" d="M255 356L256 357L255 356M49.3333 357.667L49.6667 358.333L49.3333 357.667z"/>
<path style="fill:#e49a24; stroke:none;" d="M72 357L73 358L72 357z"/>
<path style="fill:#4489bb; stroke:none;" d="M485 357L486 358L485 357z"/>
<path style="fill:#e49a24; stroke:none;" d="M70 358L71 359L70 358z"/>
<path style="fill:#4489bb; stroke:none;" d="M451 358L452 359L451 358z"/>
<path style="fill:#e49a24; stroke:none;" d="M485 358C480.952 378.789 463.205 390.301 460 412L461 412C463.638 405.152 464.672 397.31 468.479 391C475.581 379.228 485.523 372.821 487 358L485 358z"/>
<path style="fill:#4489bb; stroke:none;" d="M48 359L49 360L48 359z"/>
<path style="fill:#e49a24; stroke:none;" d="M68 359L69 360L68 359M91 359L92 360L91 359z"/>
<path style="fill:#4489bb; stroke:none;" d="M452 359L453 360L452 359z"/>
<path style="fill:#e49a24; stroke:none;" d="M67 360L68 361L67 360z"/>
<path style="fill:#b74a10; stroke:none;" d="M24 361L24 364L25 364L24 361z"/>
<path style="fill:#e49a24; stroke:none;" d="M58 361L59 362L58 361M66 361L67 362L66 361M90 361L91 362L90 361z"/>
<path style="fill:#101518; stroke:none;" d="M218 361L217 390C220.231 390 225.687 391.001 228.142 388.397C231.242 385.108 232.065 364.933 228.397 362.028C225.949 360.089 220.927 361 218 361z"/>
<path style="fill:#b74a10; stroke:none;" d="M261.333 361.667L261.667 362.333L261.333 361.667z"/>
<path style="fill:#e49a24; stroke:none;" d="M285 362L287.318 370.498L303 370L348 370L345.682 362.603L328 362L285 362z"/>
<path style="fill:#edd7c8; stroke:none;" d="M289 361L290 362L289 361M292 361L293 362L292 361z"/>
<path style="fill:#b74a10; stroke:none;" d="M296.667 361.333L297.333 361.667L296.667 361.333z"/>
<path style="fill:#4489bb; stroke:none;" d="M50 362L51 363L50 362M58 362L59 363L58 362z"/>
<path style="fill:#e49a24; stroke:none;" d="M89 362L90 363L89 362z"/>
<path style="fill:#4489bb; stroke:none;" d="M486 362L487 363L486 362M49 363L50 364L49 363z"/>
<path style="fill:#e49a24; stroke:none;" d="M261 363L262 364L261 363z"/>
<path style="fill:#4489bb; stroke:none;" d="M451 363L452 364L451 363z"/>
<path style="fill:#b74a10; stroke:none;" d="M486 363L486 369L487 369L486 363z"/>
<path style="fill:#e49a24; stroke:none;" d="M59 364L60 365L59 364M64 364L65 365L64 364M260 364L253 374C256.95 372.114 260.764 368.704 260 364z"/>
<path style="fill:#4489bb; stroke:none;" d="M485.333 364.667L485.667 365.333L485.333 364.667z"/>
<path style="fill:#b74a10; stroke:none;" d="M23.3333 365.667L23.6667 366.333L23.3333 365.667z"/>
<path style="fill:#e49a24; stroke:none;" d="M63 365L64 366L63 365M60 366L61 367L60 366z"/>
<path style="fill:#101518; stroke:none;" d="M207 366L196 390C198.927 390 203.949 390.911 206.397 388.972C210.143 386.005 208.668 369.975 207 366z"/>
<path style="fill:#4489bb; stroke:none;" d="M450 366L451 367L450 366z"/>
<path style="fill:#b74a10; stroke:none;" d="M22 367L22 370L23 370L22 367z"/>
<path style="fill:#4489bb; stroke:none;" d="M51 367L52 368L51 367z"/>
<path style="fill:#e49a24; stroke:none;" d="M62 367L63 368L62 367z"/>
<path style="fill:#4489bb; stroke:none;" d="M485 367C477.584 382.578 455.448 398.587 464 418L465 418L468 400C476.478 394.29 488.919 378.038 485 367z"/>
<path style="fill:#b74a10; stroke:none;" d="M82 368L83 369L82 368z"/>
<path style="fill:#4489bb; stroke:none;" d="M206 368L207 369L206 368z"/>
<path style="fill:#edd7c8; stroke:none;" d="M257 376L262 368L257 376z"/>
<path style="fill:#4489bb; stroke:none;" d="M52 369L53 370L52 369z"/>
<path style="fill:#e49a24; stroke:none;" d="M83 369L84 370L83 369z"/>
<path style="fill:#b74a10; stroke:none;" d="M21 370L21 380L22 380L21 370z"/>
<path style="fill:#4489bb; stroke:none;" d="M54 370L55 371L54 370M481 370L482 371L481 370M53 371L54 372L53 371z"/>
<path style="fill:#e49a24; stroke:none;" d="M82 371L83 372L82 371z"/>
<path style="fill:#4489bb; stroke:none;" d="M480 371L472 377L456 386L460 409L461 409C462.648 401.812 464.141 393.964 468.684 388C472.318 383.23 481.079 377.641 480 371z"/>
<path style="fill:#b74a10; stroke:none;" d="M485 371L485 377L486 377L485 371z"/>
<path style="fill:#4489bb; stroke:none;" d="M54 373L55 374L54 373z"/>
<path style="fill:#e49a24; stroke:none;" d="M81 373L81 376L82 376L81 373z"/>
<path style="fill:#b74a10; stroke:none;" d="M252 373L253 374L252 373z"/>
<path style="fill:#e49a24; stroke:none;" d="M287 373L288 374L287 373z"/>
<path style="fill:#b74a10; stroke:none;" d="M478 373L479 374L478 373M477 374L476 376L478 376L477 374z"/>
<path style="fill:#4489bb; stroke:none;" d="M55 375L56 376L55 375M201 376L202 377L201 376z"/>
<path style="fill:#e49a24; stroke:none;" d="M287 376C287 386.455 290.529 395.529 298 403C302.634 407.634 316.107 410.678 313 420C311.058 425.825 304.067 426.95 300 430C294.833 433.875 290.83 440.755 288 445C285.344 448.984 289.382 462.345 284 461L283 468L286 467L286 474L337 474C340.138 474 354.173 472.201 346.397 466.028C343.62 463.824 337.324 465 334 465L303 465C296.687 465 289.586 466.603 288 459C294.651 457.89 293.448 450.168 295.919 445C300.457 435.51 314.403 432.342 316 422L317 422C319.518 432.5 333.487 435.775 338.201 446C340.531 451.056 339.532 457.921 346 459C345.804 449.52 342.903 439.859 335.957 433.093C331.331 428.588 321.389 425.574 321.242 417.999C321.087 409.987 331.186 406.69 335.96 401.957C343.004 394.974 345.799 385.74 346 376C338.683 377.22 340.431 386.54 337.442 392C332.717 400.631 321.143 402.953 318 412L316 412L299.213 395.996L292.772 379.148L287 376z"/>
<path style="fill:#b74a10; stroke:none;" d="M475 376L476 377L475 376z"/>
<path style="fill:#4489bb; stroke:none;" d="M57 377L58 378L57 377z"/>
<path style="fill:#b74a10; stroke:none;" d="M473 377L474 378L473 377z"/>
<path style="fill:#4489bb; stroke:none;" d="M56 378L57 379L56 378z"/>
<path style="fill:#b74a10; stroke:none;" d="M484 379L485 380L484 379M22 380L22 383L23 383L22 380z"/>
<path style="fill:#4489bb; stroke:none;" d="M58 380L59 381L58 380z"/>
<path style="fill:#e49a24; stroke:none;" d="M80 380L80 385L81 385L80 380M448 380L449 387L450 387L448 380z"/>
<path style="fill:#b74a10; stroke:none;" d="M483 380L483 383L484 383L483 380z"/>
<path style="fill:#4489bb; stroke:none;" d="M449.333 381.667L449.667 382.333L449.333 381.667z"/>
<path style="fill:#b74a10; stroke:none;" d="M23.3333 383.667L23.6667 384.333L23.3333 383.667z"/>
<path style="fill:#4489bb; stroke:none;" d="M59 383L60 384L59 383z"/>
<path style="fill:#b74a10; stroke:none;" d="M482 383L481 386L482 383M24 386L25 387L24 386z"/>
<path style="fill:#101518; stroke:none;" d="M81 386L81 390L151 390C144.717 384.819 136.668 386 129 386L81 386z"/>
<path style="fill:#b74a10; stroke:none;" d="M145 386L146 387L145 386z"/>
<path style="fill:#4489bb; stroke:none;" d="M450 386L449 389L450 386z"/>
<path style="fill:#b74a10; stroke:none;" d="M480 386L481 387L480 386M25 387L26 388L25 387z"/>
<path style="fill:#4489bb; stroke:none;" d="M59 387L60 388L59 387z"/>
<path style="fill:#b74a10; stroke:none;" d="M147 387L148 388L147 387M479 387L480 388L479 387M26 388L31 393L26 388z"/>
<path style="fill:#4489bb; stroke:none;" d="M149 388L150 389L149 388z"/>
<path style="fill:#101518; stroke:none;" d="M186 388L187 389L186 388z"/>
<path style="fill:#e49a24; stroke:none;" d="M450 388L450 394L451 394L450 388z"/>
<path style="fill:#b74a10; stroke:none;" d="M478 388L479 389L478 388z"/>
<path style="fill:#101518; stroke:none;" d="M183 389L183 390L186 390L183 389z"/>
<path style="fill:#4489bb; stroke:none;" d="M249 389L250 390L249 389z"/>
<path style="fill:#b74a10; stroke:none;" d="M151 439L143 439L143 406C143 400.868 142.119 395.801 146 392L146 391L131.742 392.603L130 405L130 439L122 439L122 406C122 400.868 121.119 395.801 125 392L125 391L110.742 392.603L109 405L109 439L101 439L101 406C101 400.868 100.119 395.801 104 392L104 391C100.279 391 93.4826 389.724 90.6034 392.603C87.728 395.479 89 402.306 89 406L89 443C89 447.956 86.4459 463.679 90.6034 466.972C93.2214 469.046 98.8785 468 102 468L130 468L242 468L274 468C279.208 467.998 284.718 468.41 285 462C275.105 465.606 263.415 464 253 464L193 464C184.695 464 168.405 467.118 161.148 462.821C156.707 460.192 158 453.35 158 449L158 411C158 406.964 156.83 400.542 160.318 397.603C166.164 392.678 184.585 396 192 396C222.137 396 256.379 391.501 286 397C283.511 387.773 265.178 390.359 257 390.001C232.357 388.922 206.866 391.29 182 390.996C174.842 390.911 159.569 387.957 153.434 392.179C149.824 394.664 151 401.25 151 405L151 439z"/>
<path style="fill:#4489bb; stroke:none;" d="M251 389L252 390L251 389z"/>
<path style="fill:#b74a10; stroke:none;" d="M73 390L74 391L73 390z"/>
<path style="fill:#e49a24; stroke:none;" d="M262 390L263 391L262 390M476 390L477 393L476 390z"/>
<path style="fill:#4489bb; stroke:none;" d="M61 391L62 392L61 391z"/>
<path style="fill:#e49a24; stroke:none;" d="M80 391L81 392L80 391z"/>
<path style="fill:#edd7c8; stroke:none;" d="M76 406L80 405L81 406C77.3157 420.955 75.9634 436.795 73.4136 452C72.6418 456.602 72.8818 466.233 67.8557 468.397C63.1775 470.411 50.8787 470.072 46.0895 468.437C42.9647 467.37 40.6695 464.001 37.0509 464.567C30.982 465.517 31.1858 474.832 34.0093 478.66C37.3553 483.196 43.0379 482.692 48 483.285C61.2257 484.867 75.7732 484.846 89 483.285C112.212 480.547 136.759 483.527 160 483.985C184.886 484.474 210.093 482.887 235 483.455C247.957 483.751 261.116 482.915 274 483.259C280.924 483.444 288.113 486.217 291 478C286.367 475.112 286.018 472.224 286 467C269.642 471.328 250.881 469 234 469L138 469L104 469C99.6192 469 93.7697 469.913 90.3179 466.566C86.1935 462.568 88 453.235 88 448C88 430.608 84.0172 407.416 90 391C79.7285 391.008 78.6335 396.788 76 406z"/>
<path style="fill:#e49a24; stroke:none;" d="M90 391L91 392L90 391M101 439L109 439C109 424.098 105.864 405.092 111 391L102.028 393.434L101 407L101 439M122 439L130 439C130 424.098 126.864 405.092 132 391L123.028 393.434L122 407L122 439M143 439L151 439L151 407C151 401.635 150.121 396.14 154 392C150.749 390.639 145.357 390.34 143.603 394.228C141.911 397.981 143 403.963 143 408L143 439z"/>
<path style="fill:#4489bb; stroke:none;" d="M60.3333 392.667L60.6667 393.333L60.3333 392.667z"/>
<path style="fill:#e49a24; stroke:none;" d="M89 392L90 393L89 392z"/>
<path style="fill:#edd7c8; stroke:none;" d="M474 392L470.122 408L465.398 419L468 438C476.828 430.236 479.207 402.848 476 392L474 392z"/>
<path style="fill:#b74a10; stroke:none;" d="M31 393L32 394L31 393z"/>
<path style="fill:#4489bb; stroke:none;" d="M451 393L450 397L451 397L451 393z"/>
<path style="fill:#b74a10; stroke:none;" d="M32 394L33 395L32 394z"/>
<path style="fill:#e49a24; stroke:none;" d="M79 394L79 397L80 397L79 394M88 394L88 466L89 466L89 417L88 394M472 394L473 395L472 394z"/>
<path style="fill:#b74a10; stroke:none;" d="M33.6667 395.333L34.3333 395.667L33.6667 395.333z"/>
<path style="fill:#e49a24; stroke:none;" d="M451 395L451 404L452 404L451 395M471.333 395.667L471.667 396.333L471.333 395.667z"/>
<path style="fill:#b74a10; stroke:none;" d="M35 396L36 397L35 396z"/>
<path style="fill:#edd7c8; stroke:none;" d="M286 462C291.129 446.614 285 429.677 285 414C285 408.926 287.924 398.462 283 396C277.485 393.242 263.303 396 257 396L189 396C182.268 396 165.754 392.862 160 396C156.39 397.969 158 406.398 158 410L158 450C158 453.475 156.49 461.085 160 463C161.784 463.973 166.913 463 169 463L192 463L259 463C266.697 463 282.455 461.114 286 462z"/>
<path style="fill:#e49a24; stroke:none;" d="M283 396L284 397L283 396z"/>
<path style="fill:#b74a10; stroke:none;" d="M36 397L37 398L36 397z"/>
<path style="fill:#e49a24; stroke:none;" d="M284 397L286 399L286 397L284 397M413 397.518C363.299 408.121 382.11 485.367 431 474.32C481.223 462.972 463.201 386.807 413 397.518z"/>
<path style="fill:#b74a10; stroke:none;" d="M37 398L38 400L39 400L40 398L37 398z"/>
<path style="fill:#e49a24; stroke:none;" d="M78.3333 398.667L78.6667 399.333L78.3333 398.667M470 398L468 405L469 409L467 413C471.067 409.241 472.156 403.138 470 398z"/>
<path style="fill:#4489bb; stroke:none;" d="M62 399L62 405L63 405L62 399z"/>
<path style="fill:#b74a10; stroke:none;" d="M39 400L41 402L41 400L39 400M468 400L469 401L468 400z"/>
<path style="fill:#e49a24; stroke:none;" d="M77 401L78 402L77 401z"/>
<path style="fill:#b74a10; stroke:none;" d="M41 402L42 403L41 402M469 402L469 406L470 406L469 402z"/>
<path style="fill:#e49a24; stroke:none;" d="M76 403L77 404L76 403z"/>
<path style="fill:#b74a10; stroke:none;" d="M42 404L43 405L42 404M417 406.468C379.094 413.57 390.003 471.022 428 464.674C465.519 458.407 454.235 399.491 417 406.468M468.333 407.667L468.667 408.333L468.333 407.667M305 408L307 426C315.906 421.606 313.739 410.998 305 408z"/>
<path style="fill:#e49a24; stroke:none;" d="M466.333 413.667L466.667 414.333L466.333 413.667M465 416L466 417L465 416M418 418L418 422L411 423L413 429L424 429C418.981 431.522 406.885 433.59 411.184 441.946C413.081 445.634 416.757 446.852 418 451L423 451L423 447L432 445L430 439L418 440L418 439C421.623 437.842 426.767 437.222 429.566 434.487C435.14 429.04 428.403 423.093 423 422L423 418L418 418M464.333 418.667L464.667 419.333L464.333 418.667z"/>
<path style="fill:#b74a10; stroke:none;" d="M39 444C39.7104 449.616 39.5015 463.416 44.5131 466.972C49.8483 470.758 64.5616 468 71 468L78 421L39 444z"/>
<path style="fill:#e49a24; stroke:none;" d="M465.333 421.667L465.667 422.333L465.333 421.667M77 424L77 428L78 428L77 424M466.333 424.667L466.667 425.333L466.333 424.667M467 428L467 432L468 432L467 428M76 430L76 434L77 434L76 430M75 436L75 440L76 440L75 436M470 436L471 437L470 436M469 437L467 442L468 442L469 437M74 443L74 446L75 446L74 443M73 449L73 452L74 452L73 449M72 455L72 458L73 458L72 455M71 461L71 464L72 464L71 461M158 461L159 462L158 461M159 462L160 463L159 462M161 463L161 464L282 464C272.211 459.892 255.634 463 245 463L161 463M42 464L41 466L43 466L42 464M43 467L44 468L43 467z"/>
<path style="fill:#edd7c8; stroke:none;" d="M454 482C460.797 480.076 465.042 473.654 462 467C455.8 469.28 456.931 476.672 454 482z"/>
<path style="fill:#e49a24; stroke:none;" d="M44 468L44 469L70 469L44 468M92 468L92 469L282 469L264 468L226 468L92 468z"/>
<path style="fill:#edd7c8; stroke:none;" d="M321 478L321 480C335.29 486.233 354.579 483 370 483C367.233 478.14 363.011 478.513 358 477.676C347.128 475.86 331.769 474.817 321 478z"/>
</svg>
